<?xml version="1.0" encoding="UTF-8"?>
<svg id="Illustration" xmlns="http://www.w3.org/2000/svg" xmlns:xlink="http://www.w3.org/1999/xlink" version="1.1" viewBox="0 0 146.77 142.05">
  <defs>
    <style>
      .cls-1 {
        fill: #93fd98;
      }

      .cls-1, .cls-2, .cls-3, .cls-4, .cls-5, .cls-6, .cls-7, .cls-8 {
        stroke-width: 0px;
      }

      .cls-2 {
        fill: none;
      }

      .cls-3 {
        fill: #9747ff;
      }

      .cls-4 {
        fill: #fcd118;
      }

      .cls-5 {
        fill: #000;
      }

      .cls-6 {
        fill: #93fd98;
      }

      .cls-7 {
        fill: url(#_새_패턴_견본_1);
      }

      .cls-8 {
        fill: #fff;
      }
    </style>
    <pattern id="_새_패턴_견본_1" data-name="새 패턴 견본 1" x="0" y="0" width="138.92" height="150.34" patternTransform="translate(1166.39 2960.79)" patternUnits="userSpaceOnUse" viewBox="0 0 138.92 150.34">
      <g>
        <rect class="cls-2" x="0" width="138.92" height="150.34"/>
        <rect class="cls-4" x="0" width="138.92" height="150.34"/>
      </g>
    </pattern>
  </defs>
  <g>
    <g>
      <path class="cls-8" d="M24.25,64.17c0-29.11,23.44-52.71,52.35-52.71s52.35,23.6,52.35,52.71-23.44,52.71-52.35,52.71-52.35-23.6-52.35-52.71Z"/>
      <path class="cls-5" d="M76.61,117.04c-14.03,0-27.22-5.5-37.14-15.49-9.92-9.99-15.38-23.26-15.38-37.39s5.46-27.4,15.38-37.39c9.92-9.99,23.11-15.49,37.14-15.49s27.22,5.5,37.14,15.49c9.92,9.99,15.38,23.26,15.38,37.39s-5.46,27.4-15.38,37.39c-9.92,9.99-23.11,15.49-37.14,15.49ZM76.61,11.63c-28.78,0-52.19,23.57-52.19,52.54s23.41,52.54,52.19,52.54,52.19-23.57,52.19-52.54S105.38,11.63,76.61,11.63Z"/>
    </g>
    <g>
      <path class="cls-5" d="M73.38,28.87c-.08,0-.15,0-.23-.02-.76-.14-1.55-.99-2.1-2.25-.42-.96-.38-2.74-.35-4.47.03-1.4.05-2.72-.18-3.33-.42-1.1-.86-1.09-1.83-1.07-.14,0-.29,0-.45,0-.93,0-1.54-.53-1.78-.98-.14-.26-.16-.51-.05-.67,1.74-2.57,7.4-1.92,10.44-1.57,3.54.41,5.36,1.95,5.13,4.34-.24,2.4-5.14,5.16-5.7,5.46-.57.32-.83,1.22-1.07,2.09-.22.77-.44,1.58-.9,2.04-.27.27-.58.41-.91.41ZM69.03,17.39c.8,0,1.35.13,1.8,1.29.25.67.23,2.02.2,3.45-.03,1.61-.06,3.44.32,4.33.5,1.15,1.21,1.94,1.85,2.06.31.06.59-.04.84-.3.4-.41.62-1.16.82-1.9.26-.94.53-1.91,1.23-2.29,1.97-1.08,5.35-3.4,5.53-5.21.22-2.21-1.45-3.59-4.83-3.98-2.97-.34-8.5-.98-10.12,1.42-.02.03-.02.15.07.33.21.4.75.8,1.49.8.16,0,.3,0,.44,0,.12,0,.24,0,.35,0ZM66.54,16.18h0,0Z"/>
      <path class="cls-5" d="M60.45,111.6c-.58,0-1.27-.32-1.74-.75-1.1-.99-3.15-5.25-4.07-7.75-.73-1.97-1.11-8.11-1.37-12.17-.08-1.22-.14-2.27-.2-2.88-.19-2.1-1.05-2.42-3.35-3.3-.37-.14-.79-.3-1.24-.48-3.29-1.32-3.59-2.57-3.53-5.31,0-.25-.02-.57-.04-.95-.11-1.62-.28-4.06,1.4-5.58,1.49-1.35,2.28-5.71,2.2-7.54-.03-.64.33-1.23.95-1.54l.07.15-.07-.15c1.2-.6,3.22-1.12,6.05-.15,1.18.4,1.72,1.06,2.24,1.69.43.53.88,1.08,1.73,1.5.59.3,1.33.48,2.03.66,1.49.38,3.03.76,2.67,2.3-.44,1.9,1.99,3.88,5.92,4.81,2.32.55,4.04,2.09,4.18,3.73.09,1.06-.52,1.96-1.67,2.46-2.89,1.25-2.84,2.16-2.51,3.65.13.57.36,1.16.58,1.73.42,1.07.78,1.99.33,2.47-.64.69-2.73,1.34-3.64,1.54-.86.19-1.89,1.2-2.12,2.95-.24,1.85-3.25,6.61-5.02,8.62-1.57,1.8-.91,3.34.4,6.4.11.25.22.51.34.79.64,1.51.67,2.48.1,2.89-.18.13-.39.18-.63.18ZM52.49,63c-1.24,0-2.2.31-2.88.65-.5.25-.79.72-.77,1.23.08,1.64-.61,6.28-2.31,7.8-1.56,1.41-1.4,3.75-1.29,5.31.03.38.05.71.04.98-.06,2.64.21,3.75,3.32,4.99.45.18.86.34,1.23.48,2.3.87,3.35,1.27,3.56,3.58.06.61.12,1.62.2,2.89.25,4.04.63,10.15,1.35,12.08.91,2.46,2.92,6.66,3.98,7.62.57.51,1.53.86,1.96.55.42-.3.35-1.18-.21-2.49-.12-.27-.23-.53-.34-.78-1.33-3.09-2.06-4.8-.35-6.75,1.74-1.98,4.7-6.65,4.94-8.45.25-1.92,1.38-3.01,2.38-3.23,1.09-.24,2.94-.87,3.47-1.44.31-.33-.03-1.2-.39-2.13-.23-.58-.46-1.19-.59-1.78-.39-1.77-.26-2.75,2.7-4.03,1.03-.44,1.55-1.2,1.47-2.12-.11-1.23-1.38-2.82-3.93-3.43-4.18-1-6.66-3.09-6.17-5.21.27-1.16-.75-1.48-2.43-1.9-.73-.18-1.48-.37-2.1-.69-.9-.46-1.38-1.03-1.83-1.59-.51-.63-1-1.22-2.09-1.59-1.1-.38-2.08-.52-2.92-.52Z"/>
      <path class="cls-5" d="M97.97,97.01c-.32,0-.62-.16-.89-.47-1.43-1.66-1.79-7.9.38-11.13,2.45-3.65.82-6.5,0-7.56-.63-.82-.73-4.39-.71-7.25v-.16s0-.09.01-.16c.04-.44.15-1.48-.68-2.26-1.03-.96-3.1-1.19-6.17-.67-2.66.45-4.63.05-5.84-1.18-1.35-1.37-1.74-3.68-1.16-6.88.28-1.53.03-2.77-.2-3.86-.13-.64-.25-1.25-.25-1.85,0-1.84,2.48-3.36,4.56-4.31,1.25-.57,2.13-1.25,2.99-1.91.79-.61,1.55-1.19,2.48-1.58,1.37-.57,1.93.39,2.47,1.32.3.51.6,1.03,1.05,1.4.5.42.83.27,1.32.04.65-.3,1.53-.71,3.12.28,1.87,1.18,3.99.68,4.84-.04.22-.19.57-.57.39-1-.22-.54-.71-.72-1.26-.93-.73-.28-1.57-.59-2.08-1.76-.57-1.29.49-2.14,1.44-2.89.65-.52,1.33-1.06,1.46-1.7.13-.65-.18-1.49-.85-2.3-.67-.82-1.58-1.44-2.12-1.44-.32,0-.41.64-.52,1.37-.16,1.15-.38,2.74-1.77,3.23-1.23.43-2.42-.22-3.56-.85-1.03-.56-2.09-1.15-3.16-.94-1.2.23-2.28,1.65-3.42,3.15-.99,1.31-2.02,2.66-3.23,3.35-.88.5-1.66.4-2.14-.28-.78-1.09-.6-3.42.72-4.6,1.62-1.44,1.55-3.4,1.52-4.46,0-.14,0-.26,0-.37,0-.29.07-1.03.74-1.64.74-.67,1.95-.94,3.58-.78,1.31.13,2.31-.07,2.89-.56.47-.4.5-.85.5-.86.46-3.22.02-4.27-.42-4.59-.32-.23-.73-.11-1.02.03-.11.07-.44.63-.73,1.13-.86,1.47-2.03,3.49-3.12,3.26-.75-.15-1.24-1.34-1.52-3.62-.4-3.29-.02-5.38,1.13-6.21,1.01-.73,2.21-.2,2.33-.15,2.21.78,3.94.75,5.12-.1,1.71-1.22,1.87-3.82,1.85-4.87,0-.06.03-.11.08-.14s.11-.03.16,0c6.85,3.34,13.02,8.24,17.85,14.2,4.88,6.01,8.44,13.16,10.28,20.66,0,.02,0,.05,0,.07-.29,1.52-.89,3.64-2.13,5.07-1.04,1.2-.88,2.36-.74,3.39.1.76.2,1.48-.27,2.01-.14.16-.29.38-.43.58-.34.51-.69,1.04-1.16.95-.54-.11-1.24-1-2.38-6.78-1.45-7.37-4.72-7.81-6.06-7.66-.08,0-.11.08-.11.1,0,.02-.02.09.05.13.87.66,2.35,1.99,2.57,3.56.1.76-.1,1.48-.61,2.14-1.92,2.51-2.43,4.72-1.44,6.21.98,1.47,1.12,2.57.58,4.52-.2.71-.79,1.46-1.42,2.25-1.2,1.52-2.56,3.23-1.5,5.15,1.76,3.2-2.43,13.05-5.29,15.27-1.33,1.03-2.54,2.51-3.71,3.94-1.35,1.65-2.62,3.21-3.91,3.83-.17.08-.33.12-.49.12ZM92.75,66.75c1.64,0,2.84.34,3.58,1.03.95.89.83,2.09.79,2.54,0,.06-.01.1-.01.13v.16c-.04,3.9.19,6.47.64,7.04.86,1.11,2.58,4.12,0,7.95-2.06,3.06-1.75,9.18-.41,10.73.3.35.62.44.98.27,1.22-.59,2.48-2.12,3.8-3.74,1.18-1.45,2.4-2.94,3.76-3.99,2.72-2.11,6.87-11.83,5.2-14.85-1.17-2.11.27-3.92,1.53-5.52.61-.77,1.18-1.49,1.36-2.14.57-2.06.28-3.01-.54-4.25-.62-.94-1.26-3.04,1.46-6.6.45-.59.64-1.23.55-1.89-.2-1.45-1.61-2.72-2.44-3.34-.15-.12-.22-.3-.17-.49.05-.18.21-.32.4-.34,1.43-.16,4.92.28,6.42,7.93.83,4.21,1.54,6.41,2.12,6.52.25.05.56-.41.82-.81.15-.22.3-.45.45-.62.37-.42.29-1,.19-1.74-.14-1.04-.32-2.34.81-3.65,1.18-1.37,1.77-3.4,2.05-4.88-3.72-15.08-13.81-27.63-27.71-34.49-.02,1.23-.29,3.66-1.99,4.88-1.28.92-3.11.96-5.43.14,0,0-.01,0-.02,0-.01,0-1.13-.52-2.01.11-.72.52-1.48,1.96-.99,5.9.32,2.61.86,3.26,1.26,3.34.85.17,2.05-1.88,2.76-3.11.46-.79.69-1.17.87-1.26.52-.26,1-.26,1.36,0,.75.54.94,2.19.56,4.9,0,.01-.04.59-.61,1.08-.66.56-1.71.78-3.14.64-1.53-.15-2.65.08-3.32.69-.57.51-.63,1.14-.63,1.39,0,.1,0,.22,0,.35.04,1.11.11,3.17-1.63,4.72-1.18,1.05-1.36,3.2-.67,4.16.39.54.98.6,1.71.18,1.15-.66,2.16-1.98,3.13-3.26,1.18-1.55,2.29-3.02,3.62-3.27,1.19-.23,2.3.38,3.38.98,1.13.62,2.21,1.21,3.29.83,1.2-.42,1.4-1.83,1.55-2.96.12-.89.23-1.66.85-1.66.64,0,1.62.64,2.37,1.56.73.89,1.06,1.83.92,2.58-.15.77-.88,1.34-1.58,1.9-.93.74-1.81,1.44-1.34,2.5.46,1.05,1.19,1.32,1.9,1.59.6.23,1.17.44,1.45,1.12.19.46.01.96-.48,1.38-.95.8-3.19,1.34-5.23.06-1.44-.9-2.16-.56-2.81-.26-.52.24-1.01.47-1.68-.09-.49-.41-.83-.98-1.12-1.49-.56-.95-.96-1.64-2.06-1.18-.9.37-1.63.94-2.41,1.53-.83.64-1.77,1.36-3.05,1.95-2.82,1.29-4.37,2.71-4.37,4.01,0,.56.12,1.15.25,1.78.23,1.12.48,2.39.2,3.98-.56,3.09-.2,5.31,1.07,6.59,1.13,1.15,3,1.51,5.55,1.08,1.07-.18,2.03-.27,2.87-.27Z"/>
      <path class="cls-5" d="M45.08,66.77c-.28,0-.58-.09-.92-.26-1-.52-3.5-3.25-5.81-6.73-1.59-2.4-4.23-6.93-4.06-10.32.02-.45.04-.89.06-1.3.23-4.89.37-7.84,3.69-13.21.91-1.48,1.33-3.57,1.24-6.2,0-.05.02-.09.05-.13,2.26-2.19,4.75-4.23,7.39-6.04.04-.03.08-.03.13-.03l.13.03c1.89.37,5.4,1.06,9.16-.35,2.51-.94,3.98-1.62,4.96-2.07,1.3-.6,1.74-.8,2.59-.68,1.55.22,2.85,1.36,2.74,2.4-.18,1.59-1.92,2.4-5.17,2.44-1.93.02-3.65,1.03-4.6,2.71-.6,1.06-.74,2.2-.36,2.84.38.64.69.93,1.08,1.02.67.15,1.67-.3,3.71-1.65,3.75-2.5,5.53-.36,5.84.1.46.66-.08,1.84-.65,3.09-.25.55-.51,1.13-.69,1.66-.31.94-.3,1.82-.29,2.52,0,.58.02,1.03-.15,1.35-.25.47-1.1.8-2.28,1.26-.63.25-1.35.53-2.1.88-2.27,1.06-3.83,1.9-4.8,3.81-.63,1.24-1.8,1.98-2.74,2.58-.62.39-1.15.73-1.32,1.08-.15.32-.19.91-.22,1.53-.07,1.22-.16,2.61-1.08,3.14-1.2.68-3.54-.26-4.48-1.2-.42-.42-.98-.6-1.5-.48-.43.1-.77.38-.91.77-.41,1.17-.13,2.74.86,4.66,1.38,2.7,2.08,5.01,2.1,6.86.02,2.11-.31,3.35-1,3.77-.18.11-.37.16-.59.16ZM39.62,28.8c.08,2.67-.35,4.79-1.29,6.31-3.27,5.3-3.4,8.06-3.64,13.05-.02.42-.04.85-.06,1.31-.3,5.83,7.86,15.77,9.69,16.74.49.25.88.29,1.18.11.58-.35.86-1.53.84-3.48-.02-1.8-.71-4.06-2.07-6.71-1.03-2.01-1.32-3.67-.87-4.92.17-.49.6-.86,1.15-.98.64-.14,1.31.07,1.81.57.94.95,3.13,1.68,4.08,1.14.77-.44.85-1.73.91-2.87.04-.69.08-1.28.26-1.66.21-.44.78-.8,1.44-1.22.9-.57,2.03-1.29,2.62-2.45,1.1-2.16,3.06-3.08,4.95-3.96.76-.35,1.48-.64,2.12-.89,1.07-.42,1.92-.75,2.11-1.11.13-.24.12-.66.12-1.19-.01-.73-.02-1.64.3-2.63.18-.55.45-1.13.7-1.7.51-1.11,1.03-2.26.68-2.76-.29-.41-1.89-2.33-5.39-.01-2.15,1.43-3.19,1.88-3.97,1.7-.6-.14-.99-.67-1.29-1.17-.45-.75-.31-2,.35-3.18,1-1.79,2.83-2.87,4.88-2.88,3.06-.03,4.69-.75,4.85-2.14.09-.84-1.12-1.84-2.45-2.03-.75-.11-1.13.07-2.4.65-.98.45-2.45,1.13-4.98,2.08-3.84,1.44-7.42.74-9.34.37h-.06c-2.58,1.77-5.02,3.76-7.24,5.9Z"/>
      <path class="cls-5" d="M112.26,101.48s-.03,0-.05,0c-.06-.02-.1-.06-.12-.12-.28-1.19-.28-2.72-.27-3.95v-.37c0-2.15,2.14-3.44,3.42-4.21,1.37-.83,3.44-3.1,3.52-5.35.07-2.03,1.15-2.91,2.09-3.68.21-.17.41-.33.6-.51,1.04-.96,1.42-3.52,1.18-5.34-.28-2.07.23-2.64,1.34-3.01.46-.15.66-.7.84-1.19.19-.52.39-1.06.92-.94h0c.18.04.66.15,1.12,3.09,0,.02,0,.04,0,.06-2.33,9.68-7.34,18.49-14.48,25.47-.03.03-.07.05-.12.05ZM125.61,73.13c-.19,0-.29.24-.48.73-.19.53-.43,1.18-1.05,1.39-.98.33-1.37.79-1.12,2.65.26,1.94-.14,4.58-1.28,5.63-.19.18-.41.35-.61.52-.94.76-1.9,1.55-1.97,3.43-.09,2.4-2.21,4.73-3.68,5.62-1.22.74-3.26,1.97-3.26,3.93v.37c0,1.11,0,2.47.2,3.58,6.98-6.89,11.87-15.55,14.17-25.06-.41-2.61-.82-2.77-.86-2.78-.02,0-.04,0-.06,0Z"/>
    </g>
    <path class="cls-5" d="M126.33,80.86s-.03,0-.05,0c-.09-.03-.13-.12-.11-.21,1.74-5.3,2.62-10.84,2.62-16.47,0-6.61-1.21-13.06-3.58-19.17-.03-.09,0-.18.09-.22.09-.03.18,0,.22.09,2.39,6.14,3.6,12.63,3.6,19.29,0,5.67-.89,11.25-2.63,16.58-.02.07-.09.11-.16.11Z"/>
    <path class="cls-5" d="M30.87,38.66s-.05,0-.08-.02c-.08-.04-.11-.15-.06-.23,4.48-8.08,11.02-14.87,18.91-19.63,8.12-4.9,17.45-7.49,26.97-7.49,7.21,0,14.19,1.44,20.75,4.29.08.04.12.13.09.22-.04.08-.13.12-.22.09-6.52-2.83-13.46-4.26-20.62-4.26-18.89,0-36.36,10.33-45.59,26.95-.03.05-.09.09-.15.09Z"/>
  </g>
  <g>
    <g>
      <g>
        <g>
          <path class="cls-8" d="M91.02,78.92h-6.17c-.51,0-1.11.25-1.11.76v4.85c0,.51.6,1.04,1.11,1.04h.39v-4.51c0-.51.61-.81,1.12-.81h3.25c.51,0,.79.31.79.81v4.51h.63c.51,0,.87-.54.87-1.04v-4.85c0-.51-.36-.76-.87-.76Z"/>
          <path class="cls-5" d="M91.02,85.74h-.63c-.09,0-.17-.07-.17-.17v-4.51c0-.3-.11-.65-.62-.65h-3.25c-.45,0-.95.27-.95.65v4.51c0,.09-.07.17-.17.17h-.39c-.62,0-1.27-.62-1.27-1.21v-4.85c0-.6.66-.92,1.27-.92h6.17c.64,0,1.04.35,1.04.92v4.85c0,.58-.42,1.21-1.04,1.21ZM90.56,85.41h.46c.41,0,.7-.46.7-.88v-4.85c0-.51-.44-.59-.7-.59h-6.17c-.39,0-.94.18-.94.59v4.85c0,.4.51.88.94.88h.22v-4.34c0-.6.67-.98,1.28-.98h3.25c.59,0,.95.38.95.98v4.34Z"/>
        </g>
        <rect class="cls-5" x="75.91" y="132.08" width="2.21" height="5.81" rx=".94" ry=".94"/>
        <rect class="cls-5" x="98.87" y="132.12" width="2.21" height="5.81" rx=".94" ry=".94"/>
        <path class="cls-6" d="M72.94,83.01h30.81c.31,0,.55.25.55.55v47.38c0,2.07-1.68,3.75-3.75,3.75h-24.29c-2.14,0-3.88-1.74-3.88-3.88v-47.26c0-.31.25-.55.55-.55Z"/>
        <g>
          <rect class="cls-8" x="70.84" y="87.34" width="35.03" height="2.29" rx=".44" ry=".44"/>
          <path class="cls-5" d="M105.43,89.8h-34.15c-.34,0-.61-.27-.61-.61v-1.41c0-.34.27-.61.61-.61h34.15c.34,0,.61.27.61.61v1.41c0,.34-.27.61-.61.61ZM71.29,87.5c-.15,0-.28.12-.28.28v1.41c0,.15.12.28.28.28h34.15c.15,0,.28-.12.28-.28v-1.41c0-.15-.12-.28-.28-.28h-34.15Z"/>
        </g>
        <path class="cls-3" d="M74.65,81.63h27.22c1.57,0,2.85,1.28,2.85,2.85v2.85h-32.64v-3.12c0-1.42,1.15-2.58,2.58-2.58Z"/>
      </g>
      <g>
        <g>
          <circle class="cls-8" cx="88.6" cy="107.84" r="8.57"/>
          <path class="cls-5" d="M88.6,116.58c-4.82,0-8.74-3.92-8.74-8.74s3.92-8.74,8.74-8.74,8.74,3.92,8.74,8.74-3.92,8.74-8.74,8.74ZM88.6,99.44c-4.63,0-8.4,3.77-8.4,8.4s3.77,8.4,8.4,8.4,8.4-3.77,8.4-8.4-3.77-8.4-8.4-8.4Z"/>
        </g>
        <g>
          <g>
            <path class="cls-8" d="M91.54,102.76c-.02-.08-.1-.13-.18-.13l-5.71.02c-.07,0-.13.04-.16.11l-.35,1.01c-.05.15-.08.3-.08.45v7.25s0,.1.02.15l.38,1.15c.02.07.08.11.15.11l5.71.02c.08,0,.15-.08.17-.15l.31-1.16s.02-.1.02-.15l.04-7.35c0-.06,0-.12-.02-.17l-.32-1.14Z"/>
            <path class="cls-5" d="M91.33,113.06h0l-5.71-.02c-.14,0-.26-.09-.31-.22l-.38-1.15c-.02-.06-.03-.13-.03-.2v-7.25c0-.17.03-.34.08-.51l.35-1.01c.05-.13.17-.22.31-.22l5.71-.02c.16,0,.3.11.34.26l.32,1.14c.02.07.03.14.03.22l-.04,7.35c0,.07,0,.13-.03.19l-.31,1.16c-.04.14-.16.28-.33.28ZM91.36,102.79h0l-5.71.02-.35,1.01c-.04.13-.07.26-.07.4v7.25s0,.06.02.09l.38,1.15,5.7.02s0-.01.01-.03l.31-1.16s.01-.07.01-.11l.04-7.35s0-.09-.02-.13l-.32-1.14s0,0,0,0c0,0-.01-.01-.02-.01Z"/>
          </g>
          <path class="cls-5" d="M91.47,104.52h-6.15c-.09,0-.17-.07-.17-.17s.07-.17.17-.17h6.15c.09,0,.17.07.17.17s-.07.17-.17.17Z"/>
          <path class="cls-5" d="M91.55,111.76h-6.18c-.09-.01-.17-.09-.17-.18,0-.09.07-.17.17-.17h6.18c.09.01.17.09.17.18,0,.09-.07.17-.17.17Z"/>
        </g>
      </g>
    </g>
    <g>
      <rect class="cls-5" x="39.53" y="131.84" width="2.21" height="5.81" rx=".94" ry=".94"/>
      <rect class="cls-5" x="62.5" y="131.88" width="2.21" height="5.81" rx=".94" ry=".94"/>
      <g>
        <path class="cls-8" d="M36.56,81.89h30.83c.31,0,.55.25.55.55v48.26c0,2.07-1.68,3.75-3.75,3.75h-24.3c-2.14,0-3.88-1.74-3.88-3.88v-48.13c0-.31.25-.55.55-.55Z"/>
        <path class="cls-5" d="M64.19,134.62h-24.3c-2.23,0-4.05-1.81-4.05-4.05v-48.13c0-.4.32-.72.72-.72h30.83c.4,0,.72.32.72.72v48.26c0,2.16-1.76,3.92-3.92,3.92ZM36.56,82.06c-.21,0-.39.17-.39.39v48.13c0,2.05,1.67,3.71,3.71,3.71h24.3c1.98,0,3.59-1.61,3.59-3.59v-48.26c0-.21-.17-.39-.39-.39h-30.83Z"/>
      </g>
      <g>
        <circle class="cls-3" cx="51.73" cy="107.93" r="8.57"/>
        <g>
          <g>
            <path class="cls-8" d="M53.7,109.21c.16-.23.1-.54-.13-.7l-.02-.02c-.1-.07-.13-.21-.06-.32.07-.1.21-.13.32-.06l.08.05c.1.07.24.05.32-.06l.74-1.07c.2-.28.32-.61.35-.95.04-.37-.13-.72-.43-.93l-.08-.05.78-1.13-1.13-.79-.78,1.13-.08-.05c-.3-.21-.7-.24-1.03-.08-.31.15-.57.38-.77.66l-.74,1.07c-.07.1-.05.24.06.32l.08.05c.1.07.13.21.06.32-.07.1-.21.13-.32.06l-.02-.02c-.23-.16-.54-.1-.7.13l-3.5,5.04c-.16.23-.1.54.13.7l2.69,1.87c.23.16.54.1.7-.13l3.5-5.04Z"/>
            <path class="cls-8" d="M49.78,114.64c-.13,0-.27-.04-.38-.12l-2.69-1.87c-.15-.1-.25-.26-.28-.43-.03-.18,0-.35.11-.5l3.5-5.04c.1-.15.26-.25.43-.28.18-.03.35,0,.5.11l.02.02s.04.01.05,0c0,0,.03,0,.04-.03.01-.02.01-.04,0-.05,0,0,0-.03-.03-.04l-.08-.05c-.18-.12-.22-.37-.1-.55l.74-1.07c.21-.31.5-.55.83-.72.36-.18.79-.16,1.13.05l.69-.99c.05-.08.16-.09.23-.04l1.13.79s.06.06.07.11c0,.04,0,.09-.03.12l-.69.99c.32.25.48.64.45,1.04-.04.37-.17.73-.38,1.03l-.74,1.07c-.12.18-.37.22-.55.1l-.08-.05s-.07-.01-.08.02c-.01.02-.01.04,0,.05,0,0,0,.03.03.04l.02.02c.3.21.38.63.17.93l-3.5,5.04c-.13.19-.34.29-.55.29ZM50.6,106.72s-.04,0-.06,0c-.09.02-.17.07-.22.14l-3.5,5.04c-.05.07-.07.16-.06.25.02.09.07.17.14.22l2.69,1.87c.15.11.36.07.47-.08l3.5-5.04c.11-.15.07-.36-.08-.47l-.02-.02c-.09-.06-.14-.15-.16-.25-.02-.1,0-.21.06-.29.12-.18.37-.22.55-.1l.08.05s.07.01.08-.02l.74-1.07c.18-.26.29-.56.32-.87.03-.31-.11-.61-.36-.78l-.08-.05c-.08-.05-.09-.16-.04-.23l.69-.99-.86-.6-.69.99s-.06.06-.11.07c-.04,0-.09,0-.12-.03l-.08-.05c-.25-.18-.58-.2-.86-.07-.28.14-.53.35-.71.61l-.74,1.07s-.01.07.02.08l.08.05c.09.06.14.15.16.25.02.1,0,.21-.06.29-.12.18-.37.22-.55.1l-.02-.02c-.06-.04-.12-.06-.19-.06ZM53.7,109.21h0,0Z"/>
          </g>
          <path class="cls-5" d="M55.21,104.78c-.08,0-.16-.02-.23-.07l-1.03-.72c-.09-.06-.14-.15-.16-.25-.02-.1,0-.21.06-.3.06-.09.15-.14.25-.16.1-.02.21,0,.3.06l1.03.72c.18.12.22.37.1.55-.08.11-.2.17-.33.17ZM55.18,104.44s.07.01.09-.02c.02-.03.01-.07-.02-.09l-1.03-.72s-.04-.01-.05-.01c0,0-.03,0-.04.03-.01.02-.01.04-.01.05,0,0,0,.03.03.04l1.03.72Z"/>
          <g>
            <path class="cls-8" d="M56.04,103.1l-.94-.65c-.11-.08-.27-.05-.35.06l-.5.71,1.35.94.5-.71c.08-.11.05-.27-.06-.35Z"/>
            <path class="cls-5" d="M55.6,104.33s-.07-.01-.09-.03l-1.35-.94c-.08-.05-.09-.16-.04-.23l.5-.71c.06-.09.16-.15.27-.17.11-.02.22,0,.31.07l.94.65c.09.06.15.16.17.27.02.11,0,.22-.07.31l-.5.71s-.06.06-.11.07c0,0-.02,0-.03,0ZM54.49,103.18l1.08.75.4-.58s.02-.05.01-.06c0-.01,0-.04-.03-.05l-.94-.65s-.05-.02-.06-.01c-.01,0-.04,0-.05.03l-.4.58Z"/>
          </g>
          <path class="cls-5" d="M50.48,113.76s-.07-.01-.09-.03l-3.28-2.28s-.06-.06-.07-.11c0-.04,0-.09.03-.12l2.65-3.81s.06-.06.11-.07c.04,0,.09,0,.12.03l3.28,2.28c.08.05.09.16.04.23l-2.65,3.81s-.06.06-.11.07c0,0-.02,0-.03,0ZM47.44,111.27l3,2.09,2.46-3.54-3-2.09-2.46,3.54Z"/>
        </g>
      </g>
      <path class="cls-5" d="M64.19,134.62h-24.31c-2.23,0-4.04-1.81-4.04-4.04v-3.52c0-.09.07-.17.17-.17s.17.07.17.17v3.52c0,2.05,1.66,3.71,3.71,3.71h24.31c1.98,0,3.59-1.61,3.59-3.59v-48.26c0-.21-.17-.39-.39-.39h-22.97c-.09,0-.17-.07-.17-.17s.07-.17.17-.17h22.97c.4,0,.72.32.72.72v48.26c0,2.16-1.76,3.92-3.92,3.92Z"/>
      <g>
        <rect class="cls-8" x="34.46" y="87.07" width="35.04" height="2.29" rx=".44" ry=".44"/>
        <path class="cls-5" d="M69.06,89.53h-34.16c-.34,0-.61-.27-.61-.61v-1.41c0-.34.27-.61.61-.61h34.16c.34,0,.61.27.61.61v1.41c0,.34-.27.61-.61.61Z"/>
        <path class="cls-1" d="M34.9,87.24h34.16c.15,0,.28.12.28.28v1.4c0,.15-.12.28-.28.28h-34.16c-.15,0-.28-.12-.28-.28v-1.41c0-.15.12-.28.28-.28Z"/>
      </g>
    </g>
    <g>
      <g>
        <path class="cls-5" d="M127.23,78.92h-6.17c-.51,0-1.08.25-1.08.76v4.85c0,.51.57,1.04,1.08,1.04h.42v-4.51c0-.51.58-.81,1.09-.81h3.25c.51,0,.82.31.82.81v4.51h.6c.51,0,.9-.54.9-1.04v-4.85c0-.51-.39-.76-.9-.76Z"/>
        <rect class="cls-5" x="112.12" y="132.08" width="2.21" height="5.81" rx=".94" ry=".94"/>
        <rect class="cls-5" x="135.08" y="132.12" width="2.21" height="5.81" rx=".94" ry=".94"/>
        <g>
          <path class="cls-3" d="M109.16,83.01h30.81c.31,0,.55.25.55.55v47.38c0,2.07-1.68,3.75-3.75,3.75h-24.29c-2.14,0-3.88-1.74-3.88-3.88v-47.26c0-.31.25-.55.55-.55Z"/>
          <path class="cls-5" d="M136.77,134.87h-24.29c-2.23,0-4.05-1.81-4.05-4.05v-47.26c0-.4.32-.72.72-.72h30.81c.4,0,.72.32.72.72v47.38c0,2.16-1.76,3.92-3.92,3.92ZM109.16,83.18c-.21,0-.39.17-.39.39v47.26c0,2.05,1.67,3.71,3.71,3.71h24.29c1.98,0,3.59-1.61,3.59-3.59v-47.38c0-.21-.17-.39-.39-.39h-30.81Z"/>
        </g>
        <g>
          <rect class="cls-8" x="107.06" y="87.34" width="35.03" height="2.29" rx=".44" ry=".44"/>
          <path class="cls-5" d="M141.65,89.8h-34.15c-.34,0-.61-.27-.61-.61v-1.41c0-.34.27-.61.61-.61h34.15c.34,0,.61.27.61.61v1.41c0,.34-.27.61-.61.61ZM107.5,87.5c-.15,0-.28.12-.28.28v1.41c0,.15.12.28.28.28h34.15c.15,0,.28-.12.28-.28v-1.41c0-.15-.12-.28-.28-.28h-34.15Z"/>
        </g>
        <g>
          <path class="cls-8" d="M110.87,81.63h27.22c1.57,0,2.85,1.28,2.85,2.85v2.85h-32.64v-3.12c0-1.42,1.15-2.58,2.58-2.58Z"/>
          <path class="cls-5" d="M140.93,87.5h-32.64c-.09,0-.17-.07-.17-.17v-3.12c0-1.51,1.23-2.74,2.74-2.74h27.22c1.66,0,3.01,1.35,3.01,3.01v2.85c0,.09-.07.17-.17.17ZM108.46,87.16h32.31v-2.69c0-1.48-1.2-2.68-2.68-2.68h-27.22c-1.33,0-2.41,1.08-2.41,2.41v2.96Z"/>
        </g>
      </g>
      <g>
        <circle class="cls-4" cx="124.54" cy="107.88" r="8.57"/>
        <g>
          <g>
            <path class="cls-8" d="M128.62,112.3h-8.64c.58-1.04.77-5.78.43-8.84-.01-.09.07-.17.18-.17l8.09.03c.6,3.09.85,7.89.03,8.96-.02.02-.05.04-.08.04Z"/>
            <path class="cls-5" d="M128.62,112.47h-8.64c-.06,0-.11-.03-.14-.08-.03-.05-.03-.11,0-.16.54-.97.76-5.63.41-8.75,0-.09.02-.18.08-.24.07-.07.15-.12.26-.11l8.09.03c.08,0,.15.06.16.13.58,3.03.87,7.96,0,9.09-.05.06-.13.1-.21.1ZM120.23,112.14h8.35c.7-1.01.55-5.41-.06-8.66l-7.95-.02c.3,2.77.18,7.22-.35,8.69Z"/>
          </g>
          <path class="cls-5" d="M127.98,112.04s-.03,0-.04,0c-.09-.02-.14-.11-.12-.2.67-2.5.65-5.06-.06-8.06-.02-.09.03-.18.12-.2.09-.02.18.03.2.12.73,3.05.75,5.67.06,8.22-.02.07-.09.12-.16.12Z"/>
        </g>
      </g>
    </g>
  </g>
  <g>
    <g>
      <path class="cls-8" d="M60.7,61.19c.82-.43,1.14-1.44.71-2.26l-.04-.08c-.19-.37-.05-.82.32-1.02s.82-.05,1.02.32l.14.28c.19.37.65.51,1.02.32l3.83-1.99c1.01-.53,1.87-1.31,2.5-2.26.67-1.02.74-2.33.17-3.41l-.15-.28,4.04-2.1-2.11-4.05-4.04,2.1-.15-.28c-.56-1.09-1.67-1.78-2.89-1.82-1.14-.04-2.27.22-3.29.75l-3.83,1.99c-.37.19-.51.65-.32,1.02l.14.28c.19.37.05.82-.32,1.02-.37.19-.82.05-1.02-.32l-.04-.08c-.43-.82-1.44-1.14-2.26-.71l-18.07,9.4c-.82.43-1.14,1.44-.71,2.26l5.01,9.63c.43.82,1.44,1.14,2.26.71l18.07-9.4Z"/>
      <path class="cls-5" d="M71.92,49.7l-1.92-3.69c-.19-.37-.05-.83.32-1.03s.83-.05,1.03.32l1.92,3.69c.19.37.05.83-.32,1.03-.37.19-.83.05-1.03-.32Z"/>
      <path class="cls-5" d="M77.01,46.84l-1.75-3.37c-.21-.41-.71-.56-1.12-.35l-2.56,1.33,2.52,4.84,2.56-1.33c.41-.21.56-.71.35-1.12Z"/>
      <g>
        <rect class="cls-8" x="73.24" y="43.07" width=".73" height="2.74" transform="translate(79.06 -41.36) rotate(62.51)"/>
        <rect class="cls-8" x="73.79" y="44.14" width=".73" height="2.74" transform="translate(80.3 -41.28) rotate(62.52)"/>
        <rect class="cls-8" x="74.34" y="45.2" width=".73" height="2.74" transform="translate(81.55 -41.2) rotate(62.52)"/>
        <rect class="cls-8" x="74.9" y="46.27" width=".73" height="2.74" transform="translate(82.79 -41.11) rotate(62.52)"/>
      </g>
      <g>
        <polygon class="cls-8" points="44.48 69.08 38.3 56.91 51.81 49.87 58.15 61.97 44.48 69.08"/>
        <path class="cls-5" d="M44.48,69.25s-.03,0-.05,0c-.04-.01-.08-.04-.1-.08l-6.18-12.18c-.04-.08,0-.18.07-.22l13.51-7.03c.08-.04.18-.01.22.07l6.34,12.1s.02.08.01.13c-.01.04-.04.08-.08.1l-13.67,7.11s-.05.02-.08.02ZM38.52,56.98l6.03,11.88,13.37-6.96-6.18-11.81-13.22,6.88Z"/>
      </g>
      <path class="cls-5" d="M41.85,70.95c-.67,0-1.31-.36-1.64-.99l-5.01-9.63c-.23-.44-.27-.93-.12-1.4.15-.47.47-.85.91-1.08l18.07-9.4c.9-.47,2.01-.12,2.48.78l.04.08c.15.29.51.4.79.25.29-.15.4-.51.25-.79l-.14-.28c-.23-.45-.06-1.01.39-1.24l3.83-1.99c1.04-.54,2.2-.8,3.37-.77,1.28.04,2.44.77,3.04,1.91l.07.13,1.56-.81c-.03-.36.17-.72.49-.89.33-.17.73-.13,1.01.11l.3-.16-.13-.25c-.04-.08-.01-.18.07-.22l2.56-1.33c.24-.12.51-.15.76-.07.25.08.46.25.58.49l1.75,3.37c.25.49.06,1.09-.42,1.34l-2.56,1.33s-.08.02-.13.01c-.04-.01-.08-.04-.1-.08l-.13-.25-.3.16c.03.36-.17.72-.49.89-.33.17-.73.13-1.01-.11l-1.56.81.07.13c.59,1.14.52,2.51-.18,3.58-.64.98-1.53,1.78-2.56,2.32l-3.83,1.99c-.45.23-1.01.06-1.24-.39l-.14-.28c-.07-.14-.19-.24-.34-.29s-.31-.03-.45.04c-.14.07-.24.19-.29.34-.05.15-.03.31.04.45l.04.08c.47.9.12,2.01-.78,2.48l-18.07,9.4c-.27.14-.56.21-.85.21ZM54.91,48.57c-.23,0-.47.05-.69.17l-18.07,9.4c-.36.19-.62.5-.74.88-.12.38-.09.79.1,1.15l5.01,9.63c.38.74,1.3,1.03,2.04.64l18.07-9.4c.74-.38,1.03-1.3.64-2.04l-.04-.08c-.11-.22-.14-.47-.06-.7.07-.23.23-.43.45-.54.22-.11.47-.14.7-.06s.43.23.54.45l.14.28c.15.29.51.4.79.25l3.83-1.99c.99-.51,1.83-1.27,2.44-2.2.64-.97.7-2.21.16-3.25l-.15-.28c-.04-.08-.01-.18.07-.22l1.81-.94c.07-.03.15-.02.2.03.18.2.47.25.71.12.24-.12.36-.39.3-.65-.02-.07.02-.15.09-.18l.55-.29c.08-.04.18-.01.22.07l.13.25,2.41-1.26c.32-.17.45-.57.28-.89l-1.75-3.37c-.08-.16-.22-.27-.39-.33-.17-.05-.35-.04-.5.04l-2.41,1.26.13.25c.04.08.01.18-.07.22l-.55.29c-.07.03-.15.02-.2-.03-.18-.2-.47-.25-.71-.12-.23.12-.36.39-.3.65.02.07-.02.15-.09.18l-1.81.94c-.08.04-.18.01-.22-.07l-.15-.28c-.54-1.03-1.59-1.69-2.75-1.73-1.11-.03-2.22.22-3.2.73l-3.83,1.99c-.29.15-.4.51-.25.79l.14.28c.23.45.06,1.01-.39,1.24-.45.23-1.01.06-1.24-.39l-.04-.08c-.27-.52-.8-.81-1.34-.81Z"/>
    </g>
    <g>
      <g>
        <g>
          <path class="cls-5" d="M9.72,122.57s-.64,1.33-2.2,2.55c-.61.48-.06,1.97-.06,1.97l2.05,1.34c-.01-.68.12-1.35.41-1.96.3-.64,1.4-1.38,1.9-1.93l-2.11-1.98Z"/>
          <g>
            <path class="cls-8" d="M4.09,127.79c.09,1.52.43,5.74,1.67,8.49.26.57,1.03.68,1.44.2.24-.27.53-.65.86-1.18,1.13-1.77,1.75-7.08,1.87-8.14.01-.12-.03-.23-.12-.31l-.58-.53c-.25-.23-.65-.2-.85.08l-.1.13c-.08.11-.24.09-.3-.03l-.48-1.09c-.14-.31-.51-.44-.81-.29-.53.27-1.37.78-2.23,1.67-.26.27-.4.64-.38,1.01Z"/>
            <path class="cls-5" d="M6.55,136.95c-.05,0-.1,0-.15-.01-.35-.05-.64-.27-.78-.59-1.24-2.74-1.59-6.89-1.69-8.55-.02-.42.13-.84.42-1.14.87-.89,1.72-1.42,2.28-1.7.19-.09.4-.11.59-.04.2.07.36.22.44.41l.48,1.09.11-.13c.13-.17.32-.28.53-.29.21-.02.42.05.57.19l.58.53c.12.11.19.28.17.45-.12,1.05-.75,6.41-1.89,8.21-.31.49-.6.89-.88,1.2-.2.23-.48.36-.78.36ZM6.97,125.22c-.07,0-.13.02-.19.05-.54.27-1.35.78-2.19,1.63-.23.23-.35.55-.33.88.09,1.64.44,5.74,1.66,8.43.1.22.29.36.53.4.24.04.48-.05.64-.23.26-.3.55-.69.85-1.16,1.11-1.74,1.73-7.03,1.85-8.07,0-.06-.02-.13-.06-.17l-.58-.53c-.09-.08-.2-.12-.32-.11-.12.01-.22.07-.29.16l-.1.13c-.07.1-.19.15-.31.13-.12-.01-.22-.09-.27-.2l-.48-1.09c-.05-.11-.14-.19-.25-.23-.05-.02-.09-.02-.14-.02Z"/>
          </g>
          <path class="cls-5" d="M6.57,135.75c-.07,0-.13-.04-.16-.11-1.02-3.05-1.39-6.65-1.5-8.05,0-.09.06-.17.15-.18.09,0,.17.06.18.15.11,1.39.47,4.96,1.48,7.97.03.09-.02.18-.1.21-.02,0-.04,0-.05,0Z"/>
          <path class="cls-5" d="M8.47,132.26s-.01,0-.02,0l-1.18-.15c-.09-.01-.16-.09-.14-.19.01-.09.09-.16.19-.14l1.18.15c.09.01.16.09.14.19-.01.08-.08.15-.16.15Z"/>
          <path class="cls-5" d="M8.65,130.44s-.01,0-.02,0l-1.59-.2c-.09-.01-.16-.09-.14-.19.01-.09.09-.16.19-.14l1.59.2c.09.01.16.09.14.19-.01.08-.08.15-.16.15Z"/>
        </g>
        <g>
          <path class="cls-5" d="M29.45,131.45l.03,1.09c.02.87-.17,1.72-.55,2.5l-.04.08,5.3.53s-2.29-1.62-1.73-3.78c.28-1.07-3.01-.41-3.01-.41Z"/>
          <g>
            <path class="cls-8" d="M28.33,139.3c-.37,0-.68-.29-.7-.65-.06-.83-.03-2.32.67-3.54.19-.34.57-.51.94-.45l3.02.55c.31.05.63-.07.84-.32l.28-.37c.2-.26.55-.35.85-.22,1.26.57,4.49,2.17,5.5,3.95.27.47-.07,1.05-.61,1.05h-10.78Z"/>
            <path class="cls-5" d="M39.11,139.46h-10.78c-.45,0-.84-.36-.87-.81-.06-.81-.04-2.36.69-3.63.23-.4.67-.61,1.11-.53l3.02.55c.25.04.51-.06.68-.26l.27-.36c.25-.33.68-.44,1.05-.27,1.33.6,4.55,2.21,5.57,4.02.15.27.15.59,0,.86-.16.27-.44.43-.75.43ZM29.08,134.81c-.26,0-.5.14-.64.38-.68,1.2-.7,2.67-.64,3.45.02.28.25.5.53.5h10.78c.19,0,.37-.1.46-.27.1-.17.1-.37,0-.53-.98-1.73-4.12-3.29-5.42-3.88-.23-.1-.5-.04-.65.17l-.28.37c-.26.3-.63.44-1,.38l-3.02-.55s-.08-.01-.13-.01Z"/>
          </g>
          <path class="cls-5" d="M38.03,138.48h0l-9.05-.03c-.09,0-.17-.08-.17-.17,0-.09.07-.17.17-.17h0l9.05.03c.09,0,.17.08.17.17,0,.09-.07.17-.17.17Z"/>
          <path class="cls-5" d="M33.96,137.03s-.06,0-.09-.03c-.08-.05-.1-.15-.05-.23l.87-1.35c.05-.08.15-.1.23-.05.08.05.1.15.05.23l-.87,1.35s-.09.08-.14.08Z"/>
          <path class="cls-5" d="M35.37,137.37s-.07,0-.09-.03c-.08-.05-.09-.16-.04-.23l.77-1.11c.05-.08.16-.09.23-.04.08.05.09.16.04.23l-.77,1.11s-.08.07-.14.07Z"/>
        </g>
        <g>
          <g>
            <path class="cls-8" d="M32.89,85.74c-1.08-6.21-9.32-4.75-11.97,6.04-.94,3.81-1.67,10.34-2.02,13.81-.15,1.49-.46,3.03-1.38,4.21-3.7,4.73-6.19,7.09-8.58,13.5-.04.09.65,1.6,1.75,2.25.14.08.3.09.45.05,4.88-1.59,9.94-12.27,12.58-15.02,2.69-2.8,8.73-19.36,8.73-19.36,0,0,1.11-1.67.45-5.48Z"/>
            <path class="cls-5" d="M10.96,125.8c-.13,0-.25-.03-.36-.1-1.1-.65-1.91-2.22-1.82-2.45,1.99-5.32,4-7.81,6.78-11.25.58-.72,1.18-1.47,1.83-2.29.95-1.22,1.22-2.84,1.35-4.12.35-3.53,1.09-10.03,2.03-13.83,1.7-6.9,5.61-9.94,8.53-9.83,1.96.07,3.37,1.49,3.77,3.8.63,3.67-.34,5.38-.46,5.58-.32.89-6.1,16.63-8.76,19.4-.84.87-1.93,2.57-3.19,4.53-2.71,4.21-6.09,9.44-9.46,10.54-.07.02-.15.04-.23.04ZM9.11,123.33c.07.23.68,1.51,1.67,2.09.09.05.21.07.31.03,3.26-1.06,6.6-6.24,9.28-10.4,1.27-1.97,2.37-3.68,3.23-4.58,2.63-2.74,8.63-19.13,8.69-19.3,0-.01.01-.02.02-.03.01-.02,1.06-1.68.42-5.36-.37-2.15-1.66-3.46-3.45-3.53-2.79-.1-6.54,2.86-8.2,9.58-.93,3.79-1.66,10.26-2.02,13.79-.13,1.32-.41,3.01-1.42,4.29-.65.83-1.25,1.57-1.83,2.3-2.76,3.41-4.75,5.88-6.71,11.12Z"/>
          </g>
          <g>
            <path class="cls-8" d="M39.01,97.08s-1.33,8.51-2.25,13.15c-.93,4.63-.82,10.66-2.53,17.36-.4,1.57-1.15,3.79-1.46,4.69-.08.24-.31.4-.57.4l-2.54-.05c-.28,0-.52-.2-.57-.48-.42-2.19-1.96-11.59.83-17.7,1.27-2.79-2.04-11.67-1.13-15.99.72-3.42,2.71-13.36,2.71-13.36l6.17.39s1.7,5.66,1.34,11.61Z"/>
            <path class="cls-5" d="M32.21,132.84s-.01,0-.02,0l-2.54-.05c-.36,0-.66-.27-.73-.61-.5-2.64-1.92-11.74.85-17.8.62-1.37.1-4.32-.46-7.44-.56-3.12-1.13-6.35-.68-8.51.71-3.38,2.69-13.26,2.71-13.36.02-.08.09-.14.17-.13l6.17.39c.07,0,.13.05.15.12.02.06,1.7,5.76,1.34,11.67,0,0,0,.01,0,.02-.01.09-1.34,8.57-2.26,13.15-.37,1.85-.58,3.96-.8,6.19-.33,3.35-.71,7.15-1.73,11.17-.4,1.58-1.16,3.82-1.46,4.71-.11.31-.39.51-.71.51ZM31.63,85.26c-.25,1.23-2.02,10.06-2.68,13.22-.44,2.1.13,5.3.68,8.39.57,3.18,1.1,6.18.44,7.64-2.8,6.13-1.18,15.74-.82,17.6.04.19.21.34.41.34l2.54.05c.18,0,.35-.11.41-.29.3-.88,1.06-3.11,1.46-4.68,1.02-4,1.39-7.78,1.72-11.12.22-2.24.43-4.36.8-6.22.9-4.52,2.2-12.83,2.25-13.13.33-5.39-1.07-10.61-1.3-11.43l-5.91-.37ZM39.01,97.08h0,0Z"/>
          </g>
        </g>
      </g>
      <g>
        <g>
          <g>
            <path class="cls-8" d="M45.48,67.15c1.64.79,4.13,1.48,5.94,1.67.83.09,1.55.14,1.91.16.18.01.37-.02.53-.09.44-.19,1.4-.71,2.92-1.99,1.55-1.32,4.37-4.4,4.78-4.42.34-.01,1.19.15,2.05-.65.45-.42.66-.97.64-1.48-.02-.46.13-.92.46-1.24.17-.17.3-.37.26-.6-.08-.49-1.01-.57-1.01-.57.78-1.45-.67-1.93-.86-1.15-.24.96-1.7,2.01-2.43,3.16-.78,1.24-2.25,1.64-4.43,3.02-.45.29-.98.64-1.5,1-1.37.95-3.18.95-4.55,0-.72-.5-1.43-.97-1.82-1.18l-2.88,4.37Z"/>
            <path class="cls-5" d="M53.4,69.15s-.05,0-.08,0c-.36-.02-1.09-.07-1.92-.16-1.85-.2-4.37-.91-5.99-1.69-.04-.02-.08-.06-.09-.11-.01-.05,0-.1.02-.14l2.88-4.37c.05-.07.14-.1.22-.05.35.19.97.59,1.84,1.19,1.3.9,3.06.9,4.36,0,.59-.41,1.1-.74,1.51-1,.72-.45,1.35-.8,1.92-1.1,1.14-.62,1.96-1.07,2.46-1.86.31-.5.76-.97,1.18-1.42.57-.6,1.1-1.18,1.23-1.69.06-.25.25-.43.49-.48.28-.05.57.07.75.31.11.15.32.56.03,1.23.32.06.85.24.92.67.04.25-.06.51-.31.75-.28.28-.43.69-.41,1.11.03.59-.22,1.18-.69,1.61-.79.73-1.58.71-2,.7-.06,0-.12,0-.16,0-.22.05-1.35,1.17-2.26,2.07-.86.85-1.75,1.73-2.42,2.3-1.54,1.3-2.51,1.82-2.96,2.02-.17.07-.35.11-.53.11ZM45.72,67.08c1.59.73,3.96,1.39,5.71,1.57.83.09,1.55.14,1.9.16.16,0,.31-.02.46-.08.43-.19,1.37-.69,2.88-1.97.66-.56,1.55-1.44,2.4-2.29,1.58-1.57,2.2-2.16,2.48-2.17.05,0,.11,0,.18,0,.4.01,1.07.03,1.76-.61.4-.37.61-.86.58-1.35-.03-.52.16-1.02.51-1.37.16-.16.24-.32.21-.46-.05-.27-.6-.41-.86-.43-.06,0-.1-.04-.13-.09s-.03-.11,0-.16c.24-.45.28-.84.1-1.09-.1-.14-.27-.21-.42-.18-.08.02-.19.07-.23.23-.15.6-.71,1.2-1.31,1.84-.42.44-.85.9-1.14,1.37-.55.87-1.41,1.33-2.59,1.98-.56.3-1.19.65-1.9,1.09-.4.25-.91.59-1.49.99-1.42.98-3.32.98-4.74,0-.76-.52-1.32-.89-1.68-1.1l-2.69,4.08Z"/>
          </g>
          <path class="cls-5" d="M63.24,59.1s-.08-.02-.12-.05c-.07-.06-.07-.17,0-.24.36-.36.72-1.01.72-1.02.04-.08.15-.11.23-.07.08.04.11.15.07.23-.02.03-.38.7-.78,1.1-.03.03-.08.05-.12.05Z"/>
        </g>
        <g>
          <g>
            <path class="cls-8" d="M47.7,49.77c.43.02.68.29.6.71-.05.26-.39.84-.72,1.29-.44.59.14,3.29-.86,4.2-1,.91-4.96,4.89-4.96,4.89l-2.73-1.11,5.28-4.29c.33-.27.48-.71.37-1.12l-.53-2.08c-.06-.22,0-.45.14-.63l.96-1.19c.11-.13.24-.24.38-.33.24-.14.54-.17.81-.09l.27.08c.06,0,.65-.33.98-.32Z"/>
            <path class="cls-5" d="M41.76,61.02s-.04,0-.06-.01l-2.73-1.11c-.05-.02-.09-.07-.1-.13,0-.06.01-.12.06-.15l5.28-4.29c.28-.23.41-.6.32-.95l-.53-2.08c-.07-.27,0-.56.17-.78l.96-1.19c.12-.15.26-.27.43-.37.28-.16.62-.2.94-.1l.22.06s.05-.02.08-.03c.31-.14.65-.29.92-.28.27,0,.49.11.63.28.13.17.18.38.13.63-.06.31-.42.92-.75,1.36-.14.19-.16.79-.17,1.36-.03,1.01-.06,2.26-.71,2.86-.99.9-4.91,4.84-4.95,4.88-.03.03-.07.05-.12.05ZM39.35,59.7l2.37.96c.56-.56,3.97-3.98,4.89-4.81.55-.5.58-1.67.6-2.62.02-.71.03-1.27.24-1.55.34-.46.65-1.01.69-1.22.03-.15,0-.27-.06-.36-.08-.09-.21-.15-.38-.16-.21,0-.58.17-.77.25-.11.05-.15.07-.19.07-.02,0-.04,0-.07,0l-.27-.08c-.23-.07-.48-.04-.68.07-.13.07-.24.17-.34.29l-.96,1.19c-.11.14-.15.32-.11.48l.53,2.08c.12.48-.05.98-.43,1.29l-5.07,4.12Z"/>
          </g>
          <path class="cls-5" d="M45.59,51.84s-.05,0-.08-.02c-.08-.04-.11-.15-.07-.23.04-.08,1.11-2,2.29-1.97.09,0,.16.08.16.17,0,.09-.08.16-.17.16-.81-.02-1.71,1.29-1.99,1.8-.03.06-.09.09-.15.09Z"/>
        </g>
        <path class="cls-4" d="M32.49,58.61s4.67-.18,7.6.48c1.95.44,7.12,1.78,8.85,3.29,0,0,.83,4.67-3.09,8.29l-3.44-.79s1.06,20.21-2.02,26.85c-.19.41-3.1,1.28-3.1,1.28,0,0-.32-6.85-.84-6.69-.52.15-2.63,7.58-3.26,7.7-6.72,1.21-14.59.15-14.72-.1-.06-.13-.17-5.63,3.28-12.2,2.2-4.2,5.21-8,5.69-10.5.77-3.99-1.37-9.44-.74-13.97.14-.96.1-3.49,5.78-3.62Z"/>
      </g>
      <g>
        <path class="cls-3" d="M39.49,50.25s2.07-.47.82-3.96c-1.25-3.51-5.2-2.26-6.72-2.38-1.51-.12-4.58-2.42-5.66-2.97-1.09-.54-4.67-3.06-9.45,1.43,0,0-.74,1.16-4.79,1.14-3.52-.02-9.53,2.43-7.09,6.86.71,1.28,1.86,2.21,3.2,2.67.24.08.51.16.79.23.83.2,1.51.81,1.79,1.66.9,2.74,3.87,7.94,12.63,1.84.66-.46,1.48-.57,2.23-.32.92.31,2.01,1.71,6.23.78,2.71-.6,3.32-3.61,3.93-5.01.71-1.64,2.09-1.98,2.09-1.98Z"/>
        <g>
          <path class="cls-8" d="M36.8,51.79c.13-.85.19-1.51,1.07-1.33.67.13,1.26-.91,1.8-.5.1.08.31.5.41.68.72,1.36.72,4.74-.33,5.42s-2.29-.61-2.91.29c-.61.9-.68,2.13-.75,3.55-.22.14-1.28.34-1.89.33-1.24,0-1.97-1.06-2.04-1.17.22-.37.43-.81.63-1.32.12-.3.33-.98.33-.98.97-.52,1.81-1.22,2.49-2.07.62-.78,1.01-1.72,1.17-2.7l.03-.19Z"/>
          <path class="cls-5" d="M34.22,60.39s-.02,0-.02,0c-1.32-.01-2.09-1.12-2.18-1.25-.04-.05-.04-.12,0-.18.22-.37.43-.81.62-1.29.11-.29.33-.96.33-.97.01-.04.04-.08.08-.1.95-.51,1.77-1.19,2.43-2.03.59-.75.98-1.66,1.13-2.63l.04-.29c.08-.56.16-1.04.49-1.27.19-.13.44-.17.76-.11.24.05.5-.12.75-.29.34-.22.73-.47,1.11-.18.1.08.22.29.41.66l.04.07c.72,1.36.77,4.89-.38,5.64-.56.37-1.17.22-1.7.09-.58-.14-.92-.2-1.16.15-.59.86-.65,2.07-.73,3.46,0,.05-.03.1-.08.13-.25.16-1.32.36-1.96.36ZM32.36,59.04c.2.27.85,1.01,1.84,1.02.56,0,1.44-.16,1.73-.27.07-1.4.15-2.62.78-3.54.38-.56.96-.42,1.52-.28.49.12.99.24,1.44-.05.93-.6.97-3.88.27-5.2l-.04-.07c-.06-.12-.26-.49-.32-.55-.18-.14-.36-.05-.72.19-.29.19-.63.41-1,.33-.23-.05-.4-.03-.51.05-.22.15-.28.57-.35,1.05v.1s-.01,0-.01,0l-.03.19c-.16,1.03-.57,1.99-1.2,2.78-.68.86-1.51,1.56-2.48,2.09-.06.18-.22.68-.32.93-.18.46-.38.88-.59,1.24ZM36.8,51.79h0,0Z"/>
        </g>
        <path class="cls-5" d="M38.39,53.78s-.01,0-.02,0c-.82-.1-1.3-.99-1.42-1.83-.1-.75.09-1.33.49-1.49.91-.37,1.57,1.02,1.6,1.08.04.08,0,.18-.08.22-.08.04-.18,0-.22-.08,0-.01-.57-1.16-1.18-.91-.24.1-.36.58-.28,1.14.1.71.48,1.47,1.13,1.54.09.01.16.09.15.18,0,.08-.08.15-.16.15Z"/>
      </g>
    </g>
  </g>
  <circle class="cls-3" cx="120.42" cy="23.96" r="19.27"/>
  <g>
    <g>
      <path class="cls-7" d="M131.08,27.39l-2.57,4.82c-.46.86-1.35,1.4-2.32,1.43l-2.91.05h-.46s-.02.46-.02.46l-.03.64-2.24-3.81,2.15-3.84v.74h.48s5.31-.1,5.31-.1l.91-.02h.04c.56-.02,1.11-.13,1.63-.35,0,0,.02,0,.03-.01Z"/>
      <path class="cls-5" d="M122.78,34.95c-.06,0-.11-.03-.14-.08l-2.24-3.81c-.03-.05-.03-.11,0-.17l2.15-3.83c.04-.07.11-.1.19-.08.07.02.12.09.12.16v.57s6.56-.12,6.56-.12c.54-.01,1.07-.13,1.56-.34h.02c.06-.04.15-.02.19.03.05.05.06.13.03.19l-2.57,4.82c-.48.91-1.43,1.49-2.46,1.52l-3.21.06-.04.93c0,.07-.05.14-.13.15-.01,0-.03,0-.04,0ZM120.73,30.97l1.91,3.24.02-.52c0-.09.08-.16.16-.16l3.37-.06c.91-.02,1.75-.54,2.18-1.34l2.36-4.43c-.42.13-.86.21-1.3.22l-.95.02-5.78.1s-.09-.02-.12-.05c-.03-.03-.05-.07-.05-.12v-.1s-1.8,3.2-1.8,3.2Z"/>
    </g>
    <g>
      <path class="cls-7" d="M132.56,23.01c.28.52.28,1.14,0,1.66l-1.5,2.73c-.51.22-1.06.33-1.63.35h-.04s-.91.02-.91.02l-2.93-5.14c-.04-.07-.02-.14,0-.17s.06-.08.15-.09l2.98-.05h.3s.13-.27.13-.27l1.38-2.83,2.08,3.78Z"/>
      <path class="cls-5" d="M128.48,27.94c-.06,0-.11-.03-.14-.08l-2.93-5.14c-.06-.11-.06-.23,0-.33.06-.1.17-.17.29-.17l3.18-.06,1.46-3c.03-.06.08-.09.15-.09.06,0,.12.03.15.09l2.08,3.78c.31.57.31,1.25,0,1.82l-1.5,2.73s-.05.06-.08.07c-.54.22-1.1.35-1.68.36l-.95.02s0,0,0,0ZM130.49,19.59l-1.37,2.8c-.03.06-.08.09-.15.09l-3.28.06,2.87,5.06.85-.02c.52-.01,1.03-.12,1.51-.31l1.47-2.68c.26-.47.26-1.03,0-1.5l-1.92-3.5ZM128.98,22.32h0,0Z"/>
    </g>
    <g>
      <path class="cls-7" d="M117.71,31.39l1.77,2.55-4.39-.06c-.6,0-1.14-.31-1.45-.81l-1.63-2.61c.08-.56.26-1.09.55-1.59l.45-.78h6.02c.09,0,.13.05.15.08.02.03.04.09,0,.17l-1.48,2.57-.15.26.17.24Z"/>
      <path class="cls-5" d="M119.49,34.11s0,0,0,0l-4.39-.06c-.66,0-1.25-.34-1.59-.89l-1.63-2.61s-.03-.07-.02-.11c.08-.58.27-1.13.57-1.65l.45-.79c.03-.05.08-.08.14-.08h6.02c.12,0,.23.05.29.16.06.11.06.23,0,.33l-1.58,2.74,1.88,2.7c.04.05.04.12.01.17-.03.05-.09.09-.15.09ZM112.18,30.42l1.6,2.56c.28.45.77.73,1.32.73l4.07.06-1.76-2.52c-.04-.05-.04-.12,0-.18l1.63-2.83h-5.92s-.41.71-.41.71c-.27.46-.44.96-.52,1.47Z"/>
    </g>
    <g>
      <path class="cls-7" d="M129.58,16.18l-2.26,3.88-4.41.13.23-.14.41-.24-.24-.4-2.66-4.49-.46-.77c-.29-.49-.67-.91-1.11-1.24,0,0-.02-.01-.03-.02l5.48-.28s.04,0,.07,0c.96-.02,1.85.46,2.33,1.27l1.45,2.44.23.38.4-.21.57-.3Z"/>
      <path class="cls-5" d="M122.91,20.35c-.07,0-.14-.05-.16-.12-.02-.07.01-.15.08-.19l.5-.29-3.27-5.51c-.28-.47-.64-.87-1.07-1.19l-.03-.02c-.06-.04-.08-.11-.06-.18.02-.07.08-.11.15-.12l5.55-.29h0c1.02-.03,1.96.49,2.47,1.35l1.6,2.69.83-.44c.07-.03.15-.02.2.03.05.05.06.13.02.2l-2.26,3.87s-.08.08-.14.08l-4.41.13s0,0,0,0ZM119.49,13.03c.33.3.62.64.85,1.03l3.36,5.66s.03.08.02.13c-.01.04-.04.08-.08.1l-.09.05,3.67-.11,1.92-3.29-.46.24c-.08.04-.18.01-.22-.06l-1.68-2.83c-.45-.76-1.28-1.21-2.18-1.19h-.06s-5.06.26-5.06.26Z"/>
    </g>
    <g>
      <path class="cls-7" d="M120.2,14.15l.46.77-3.09,5.14c-.04.07-.11.08-.15.09-.04,0-.11,0-.15-.08l-1.49-2.52-.15-.25-.3.03-3.15.28,2.31-3.72c.32-.51.86-.82,1.46-.85l3.13-.12c.45.33.82.75,1.11,1.24Z"/>
      <path class="cls-5" d="M117.41,20.32c-.12,0-.23-.06-.29-.16l-1.59-2.68-3.34.29c-.06,0-.12-.02-.16-.08-.03-.05-.03-.12,0-.17l2.31-3.72c.35-.56.94-.9,1.6-.93l3.13-.12s.08.01.11.03c.47.35.86.78,1.16,1.29l.46.77c.03.05.03.12,0,.17l-3.09,5.14c-.06.1-.16.16-.28.17,0,0,0,0,0,0ZM115.62,17.13c.06,0,.11.03.14.08l1.64,2.77,3.05-5.06-.41-.68c-.27-.45-.61-.84-1.02-1.16l-3.07.12c-.54.02-1.04.31-1.33.77l-2.14,3.44,3.12-.27s0,0,.01,0Z"/>
    </g>
    <g>
      <path class="cls-7" d="M114.28,19.74l2.26,3.7-.23-.13-.41-.23-.24.41-2.65,4.58-.45.78c-.29.5-.47,1.04-.55,1.59v.03s-2.92-4.54-2.92-4.54c-.52-.81-.54-1.85-.05-2.7l1.44-2.5.23-.39-.39-.23-.54-.33,4.5-.06Z"/>
      <path class="cls-5" d="M112.01,30.66c-.06,0-.11-.03-.14-.08l-2.91-4.53c-.56-.87-.58-1.97-.06-2.87l1.59-2.75-.79-.48c-.06-.04-.09-.11-.07-.19.02-.07.08-.12.16-.12l4.5-.06c.06,0,.11.03.14.08l2.26,3.7c.04.06.03.15-.02.2-.05.05-.13.07-.2.03l-.5-.28-3.26,5.64c-.28.48-.45.99-.53,1.53v.03c-.01.07-.06.13-.13.14-.01,0-.02,0-.04,0ZM110.36,19.96l.44.27c.08.05.1.15.06.23l-1.67,2.89c-.46.8-.44,1.76.05,2.52l2.68,4.18c.1-.44.27-.86.5-1.26l3.34-5.78c.05-.08.14-.11.22-.06l.1.05-1.88-3.09-3.83.05Z"/>
    </g>
  </g>
  <g>
    <g>
      <path class="cls-5" d="M23.6,33.27s-.06,0-.08-.02c-.08-.05-.11-.15-.06-.23,3.7-6.39,8.57-11.79,14.47-16.05,4.9-3.53,9.46-5.52,12.43-6.56.09-.03.18.02.21.1.03.09-.02.18-.1.21-5.18,1.82-18.14,7.65-26.72,22.46-.03.05-.09.08-.14.08Z"/>
      <path class="cls-5" d="M23.76,28.95s-.05,0-.07-.02c-.08-.04-.12-.14-.08-.22.02-.03,1.56-3.14,4.65-6.8,2.86-3.38,7.66-7.93,14.33-10.44.09-.03.18.01.21.1.03.09-.01.18-.1.21-12.64,4.75-18.74,16.96-18.8,17.08-.03.06-.09.09-.15.09Z"/>
      <path class="cls-5" d="M52.29,11.51s-.04,0-.06,0c-.05-.02-.09-.06-.1-.11l-.77-2.92c-.02-.06,0-.12.04-.16.04-.04.1-.06.16-.04l3.45.99c.06.02.11.07.12.13.01.06-.01.13-.07.16l-2.68,1.94s-.06.03-.1.03ZM51.76,8.66l.63,2.41,2.2-1.6-2.84-.81Z"/>
    </g>
    <g>
      <path class="cls-5" d="M138.08,74.07c-.1,0-.2-.01-.31-.03-.82-.17-1.35-.97-1.18-1.79.08-.4.31-.74.65-.96.34-.22.74-.3,1.14-.22.82.17,1.35.97,1.18,1.79-.15.71-.78,1.21-1.48,1.21ZM136.76,72.28l.16.03c-.13.64.28,1.26.92,1.4.64.13,1.26-.28,1.4-.92.13-.64-.28-1.26-.92-1.4-.31-.06-.62,0-.89.17-.26.17-.44.44-.51.75l-.16-.03Z"/>
      <path class="cls-5" d="M138.33,68.95s-.01,0-.02,0c-.09-.01-.16-.09-.15-.18.72-6.25.06-12.43-1.97-18.38-.03-.09.02-.18.1-.21.09-.03.18.02.21.1,2.04,6,2.71,12.23,1.98,18.53,0,.08-.08.15-.16.15Z"/>
      <path class="cls-5" d="M134.61,76.23s-.02,0-.02,0c-.09-.01-.15-.1-.14-.19.91-6.14,1.47-15.12-1-22.99-.03-.09.02-.18.11-.21.09-.03.18.02.21.11,2.5,7.93,1.93,16.96,1.02,23.14-.01.08-.08.14-.16.14Z"/>
    </g>
    <g>
      <path class="cls-5" d="M9.26,96.69c-.09,0-.17-.07-.17-.17v-1.29c0-.09.07-.17.17-.17s.17.07.17.17v1.29c0,.09-.07.17-.17.17Z"/>
      <path class="cls-5" d="M9.26,99.69c-.09,0-.17-.07-.17-.17v-1.29c0-.09.07-.17.17-.17s.17.07.17.17v1.29c0,.09-.07.17-.17.17Z"/>
      <path class="cls-5" d="M8.4,97.55h-1.29c-.09,0-.17-.07-.17-.17s.07-.17.17-.17h1.29c.09,0,.17.07.17.17s-.07.17-.17.17Z"/>
      <path class="cls-5" d="M11.41,97.55h-1.29c-.09,0-.17-.07-.17-.17s.07-.17.17-.17h1.29c.09,0,.17.07.17.17s-.07.17-.17.17Z"/>
    </g>
    <g>
      <path class="cls-5" d="M99,10.31c-.09,0-.17-.07-.17-.17v-1.29c0-.09.07-.17.17-.17s.17.07.17.17v1.29c0,.09-.07.17-.17.17Z"/>
      <path class="cls-5" d="M99,13.31c-.09,0-.17-.07-.17-.17v-1.29c0-.09.07-.17.17-.17s.17.07.17.17v1.29c0,.09-.07.17-.17.17Z"/>
      <path class="cls-5" d="M98.15,11.17h-1.29c-.09,0-.17-.07-.17-.17s.07-.17.17-.17h1.29c.09,0,.17.07.17.17s-.07.17-.17.17Z"/>
      <path class="cls-5" d="M101.15,11.17h-1.29c-.09,0-.17-.07-.17-.17s.07-.17.17-.17h1.29c.09,0,.17.07.17.17s-.07.17-.17.17Z"/>
    </g>
    <g>
      <path class="cls-5" d="M18.04,33.45c-.09,0-.17-.07-.17-.17v-1.29c0-.09.07-.17.17-.17s.17.07.17.17v1.29c0,.09-.07.17-.17.17Z"/>
      <path class="cls-5" d="M18.04,36.45c-.09,0-.17-.07-.17-.17v-1.29c0-.09.07-.17.17-.17s.17.07.17.17v1.29c0,.09-.07.17-.17.17Z"/>
      <path class="cls-5" d="M17.18,34.31h-1.29c-.09,0-.17-.07-.17-.17s.07-.17.17-.17h1.29c.09,0,.17.07.17.17s-.07.17-.17.17Z"/>
      <path class="cls-5" d="M20.18,34.31h-1.29c-.09,0-.17-.07-.17-.17s.07-.17.17-.17h1.29c.09,0,.17.07.17.17s-.07.17-.17.17Z"/>
    </g>
    <path class="cls-5" d="M91.14,10.14c-.16,0-.31-.03-.47-.09-.33-.13-.59-.38-.73-.71-.29-.67.01-1.45.67-1.75.32-.14.67-.15.99-.03.33.13.59.38.73.71.29.67-.01,1.45-.67,1.75-.17.08-.35.11-.53.11ZM91.14,7.82c-.13,0-.26.03-.39.08-.49.22-.71.81-.5,1.31.11.25.3.43.54.53.24.09.5.09.73-.02.49-.22.71-.81.5-1.31-.11-.25-.3-.43-.54-.53-.11-.04-.23-.07-.34-.07Z"/>
  </g>
</svg>