<?xml version="1.0" encoding="UTF-8"?>
<svg id="_레이어_1" data-name="레이어 1" xmlns="http://www.w3.org/2000/svg" xmlns:xlink="http://www.w3.org/1999/xlink" version="1.1" viewBox="0 0 64 62">
  <defs>
    <style>
      .cls-1 {
        clip-path: url(#clippath);
      }

      .cls-2 {
        fill: none;
      }

      .cls-2, .cls-3, .cls-4, .cls-5 {
        stroke-width: 0px;
      }

      .cls-3 {
        fill: #9747ff;
      }

      .cls-4 {
        fill: #000;
      }

      .cls-5 {
        fill: #93fd98;
      }
    </style>
    <clipPath id="clippath">
      <rect class="cls-2" x="7.86" y="6.25" width="47.35" height="45.8"/>
    </clipPath>
  </defs>
  <g class="cls-1">
    <g>
      <path class="cls-5" d="M49.54,36.65h-8.22v9.5h8.22v-9.5Z"/>
      <path class="cls-3" d="M53.66,22.83v26.13c0,.85-.7,1.55-1.56,1.55h-13.33c-.86,0-1.56-.69-1.56-1.55v-26.13c0-.85.7-1.55,1.56-1.55h13.33c.86,0,1.56.69,1.56,1.55ZM51.05,46.9v-21.07c0-.41-.34-.75-.76-.75h-9.73c-.42,0-.75.33-.75.75v21.07c0,.41.34.75.75.75h9.73c.42,0,.76-.33.76-.75Z"/>
      <path class="cls-5" d="M31.37,7.79l1.11,3.22h-12.65s1.11-3.22,1.11-3.22h10.43Z"/>
      <path class="cls-4" d="M55.17,22.83v26.13c0,1.68-1.38,3.04-3.07,3.04H12.78c-1.75,0-3.18-1.41-3.18-3.15v-31.15h-.94c-.42,0-.75-.34-.75-.75v-5.23c0-.2.08-.39.23-.53.14-.14.33-.22.53-.22h9.57s1.45-4.19,1.45-4.19c.1-.3.39-.51.71-.51h11.51c.32,0,.61.2.71.51l1.45,4.22h9.65c.2.01.39.09.53.23.14.14.22.33.22.53v2.93s5.34,0,5.34,0c.42,0,.75.33.75.75v4.34h1.53c1.69,0,3.07,1.36,3.07,3.04ZM53.66,48.97v-26.13c0-.85-.7-1.55-1.56-1.55h-13.33c-.86,0-1.56.69-1.56,1.55v26.13c0,.85.7,1.55,1.56,1.55h13.33c.86,0,1.56-.69,1.56-1.55ZM49.06,19.8v-3.59h-7.26v3.59h7.26ZM42.96,14.71v-2.19l-17.09-.02h-7.11s-.04,0-.07,0h-9.28s0,3.72,0,3.72l16.93.02h12.54v1.51h-12.6s-15.19-.01-15.19-.01v8.36h15.91l.69-.85c.21-.26.56-.35.87-.23.31.12.5.43.47.75l-.03.32h5.39v1.49h-5.51l-.37,4.41h3.24c.29.01.56.18.68.44.12.26.09.57-.1.79l-6.06,7.44h8.12v1.49h-9.33l-.69.85c-.15.18-.36.28-.59.28-.1,0-.19-.02-.29-.06-.31-.12-.5-.43-.47-.76l.03-.31h-11.96v6.71c0,.91.75,1.66,1.67,1.66h23.35c-.27-.46-.44-.98-.44-1.55v-26.13c0-1.68,1.38-3.04,3.07-3.04h1.53v-4.34c0-.41.34-.75.75-.75h1.92ZM32.47,11.01l-1.11-3.22h-10.43l-1.11,3.21h6.05s6.6,0,6.6,0ZM24.78,40.13l5.41-6.64h-2.49c-.21,0-.41-.09-.55-.25-.14-.15-.21-.36-.2-.57l.38-4.61-5.22,6.41h2.38s0,0,0,0c.21,0,.41.09.56.24.14.16.21.36.19.57l-.47,4.84ZM19.95,34.76l5.85-7.17h-14.69v13.07h12.11l.45-4.69h-3.13s0,0,0,0c-.29,0-.56-.16-.68-.42-.13-.26-.09-.57.09-.79Z"/>
      <path class="cls-4" d="M51.05,25.83v21.07c0,.41-.34.75-.75.75h-9.73c-.42,0-.75-.33-.75-.75v-21.07c0-.41.34-.75.75-.75h9.73c.42,0,.75.33.75.75ZM49.54,46.15v-9.5h-8.22v9.5h8.22ZM49.54,35.15v-8.57h-8.22v8.57h8.22Z"/>
      <path class="cls-3" d="M30.19,33.5l-5.41,6.64.47-4.84c.02-.21-.05-.42-.19-.57-.14-.16-.35-.24-.56-.24h-2.38s5.22-6.4,5.22-6.4l-.38,4.61c-.02.21.05.41.2.57.14.16.34.24.55.24h2.49Z"/>
      <path class="cls-4" d="M13.82,19.73c.57,0,1.04.46,1.04,1.03s-.46,1.03-1.04,1.03-1.04-.46-1.04-1.03.47-1.03,1.04-1.03Z"/>
      <path class="cls-4" d="M13.82,46.57c.57,0,1.04.46,1.04,1.03s-.46,1.03-1.04,1.03-1.04-.46-1.04-1.03.47-1.03,1.04-1.03Z"/>
    </g>
  </g>
</svg>