<?xml version="1.0" encoding="UTF-8"?>
<svg id="_레이어_1" data-name="레이어 1" xmlns="http://www.w3.org/2000/svg" version="1.1" viewBox="0 0 210 176">
  <defs>
    <style>
      .cls-1 {
        fill: #9747ff;
      }

      .cls-1, .cls-2, .cls-3, .cls-4, .cls-5, .cls-6 {
        stroke-width: 0px;
      }

      .cls-2 {
        fill: #fcd118;
      }

      .cls-3 {
        fill: #1e243a;
      }

      .cls-4 {
        fill: #93fd98;
      }

      .cls-5 {
        fill: #4a91d6;
      }

      .cls-6 {
        fill: #e1e1e5;
      }
    </style>
  </defs>
  <polygon class="cls-2" points="28.99 146.53 48.37 146.53 51.82 108.05 25.6 108.1 28.99 146.53"/>
  <path class="cls-2" d="M105.59,13.65c-5.81,0-11.64,4.58-10.53,10.52l4.08,12.83h12.73l4.24-12.83c1.53-5.7-4.71-10.52-10.53-10.52Z"/>
  <g>
    <g>
      <path class="cls-5" d="M167.82,108.01l-2.41,5.54,2.41-5.54Z"/>
      <g>
        <path class="cls-1" d="M181.02,110.3c-6.47-2.82-12.35-3.65-13.13-1.86-.78,1.79,3.83,5.53,10.3,8.35,6.47,2.82,12.35,3.65,13.13,1.86.78-1.79-3.83-5.53-10.3-8.35Z"/>
        <path class="cls-1" d="M175.99,121.84c9.05,2.87,14.16,3.07,15.27-2.26l-23.45-9.82c-4.91,2.75-1.55,9,8.18,12.08Z"/>
        <path class="cls-5" d="M191.26,118.61l-2.22,5.09,2.22-5.09Z"/>
      </g>
    </g>
    <polygon class="cls-1" points="164.82 139.69 165.01 146.97 170.47 142.15 178.64 123.39 172.99 120.93 164.82 139.69"/>
  </g>
  <rect class="cls-1" x="27.73" y="32.96" width="21.74" height="45.65" rx="2.42" ry="2.42"/>
  <rect class="cls-5" x="70.9" y="53.3" width="69.32" height="7.85"/>
  <polygon class="cls-2" points="38.63 38.13 32.47 60.59 37.51 58.03 38.63 74.12 44.79 49.64 38.75 53.34 38.63 38.13"/>
  <circle class="cls-4" cx="38.74" cy="125.61" r="6.54"/>
  <path class="cls-4" d="M76.46,137.24c0,2.67,2.16,4.83,4.83,4.83h36.09l17.41-17.72v-63.31h-58.33v76.2Z"/>
  <circle class="cls-2" cx="129.45" cy="136.51" r="13.28" transform="translate(-46.21 203.86) rotate(-67.5)"/>
  <rect class="cls-6" x="21.63" y="102.21" width="33.81" height="5.07"/>
  <polygon class="cls-6" points="185.95 35.82 169.27 35.73 158.46 41.71 158.46 79.51 192.51 79.51 192.51 32.29 186.09 32.29 185.95 35.82"/>
  <rect class="cls-4" x="168.36" y="51.37" width="14.25" height="14.25"/>
  <rect class="cls-6" x="99.04" y="37" width="12.68" height="7.85"/>
  <rect class="cls-6" x="35.76" y="79.39" width="5.56" height="4.47"/>
  <rect class="cls-6" x="35.76" y="27.82" width="5.56" height="4.35"/>
  <circle class="cls-6" cx="129.45" cy="136.51" r="8.94" transform="translate(-49.1 77.23) rotate(-28.15)"/>
  <path class="cls-3" d="M117.38,141.16h-36.09c-2.16,0-3.92-1.76-3.92-3.92V61.03c0-.5-.41-.91-.91-.91s-.91.41-.91.91v76.2c0,3.16,2.57,5.74,5.74,5.74h36.09c.5,0,.91-.41.91-.91s-.41-.91-.91-.91Z"/>
  <path class="cls-3" d="M134.79,60.13c-.5,0-.91.41-.91.91v63.31c0,.5.41.91.91.91s.91-.41.91-.91v-63.31c0-.5-.41-.91-.91-.91Z"/>
  <path class="cls-3" d="M140.28,52.34h-69.32c-.5,0-.91.41-.91.91v7.85c0,.5.41.91.91.91h69.32c.5,0,.91-.41.91-.91v-7.85c0-.5-.41-.91-.91-.91ZM139.37,60.19h-67.51v-6.04h67.51v6.04Z"/>
  <path class="cls-3" d="M129.45,122.32c-7.82,0-14.19,6.37-14.19,14.19s6.37,14.19,14.19,14.19,14.19-6.37,14.19-14.19-6.37-14.19-14.19-14.19ZM129.45,148.89c-6.83,0-12.38-5.55-12.38-12.38s5.55-12.38,12.38-12.38,12.38,5.55,12.38,12.38-5.55,12.38-12.38,12.38Z"/>
  <path class="cls-3" d="M129.45,126.67c-5.43,0-9.84,4.42-9.84,9.84s4.42,9.84,9.84,9.84,9.84-4.42,9.84-9.84-4.42-9.84-9.84-9.84ZM129.45,144.54c-4.43,0-8.03-3.6-8.03-8.03s3.6-8.03,8.03-8.03,8.03,3.6,8.03,8.03-3.6,8.03-8.03,8.03Z"/>
  <path class="cls-3" d="M47.05,32.05h-16.91c-1.83,0-3.32,1.49-3.32,3.32v40.82c0,1.83,1.49,3.32,3.32,3.32h16.91c1.83,0,3.32-1.49,3.32-3.32v-40.82c0-1.83-1.49-3.32-3.32-3.32ZM48.56,76.19c0,.83-.68,1.51-1.51,1.51h-16.91c-.83,0-1.51-.68-1.51-1.51v-40.82c0-.83.68-1.51,1.51-1.51h16.91c.83,0,1.51.68,1.51,1.51v40.82Z"/>
  <path class="cls-3" d="M41.37,26.86h-5.56c-.5,0-.91.41-.91.91v4.41c0,.5.41.91.91.91s.91-.41.91-.91v-3.5h3.74v3.5c0,.5.41.91.91.91s.91-.41.91-.91v-4.41c0-.5-.41-.91-.91-.91Z"/>
  <path class="cls-3" d="M41.37,78.48c-.5,0-.91.41-.91.91v3.5h-3.74v-3.5c0-.5-.41-.91-.91-.91s-.91.41-.91.91v4.41c0,.5.41.91.91.91h5.56c.5,0,.91-.41.91-.91v-4.41c0-.5-.41-.91-.91-.91Z"/>
  <path class="cls-3" d="M45.33,48.91c-.3-.22-.7-.23-1.01-.04l-4.67,2.87-.11-13.61c0-.45-.34-.83-.79-.89-.45-.06-.87.22-.99.66l-6.16,22.46c-.09.35.02.71.3.94.28.23.66.27.98.11l3.82-1.94,1.02,14.72c.03.44.38.8.82.84.03,0,.05,0,.08,0,.41,0,.78-.28.88-.68l6.16-24.47c.09-.36-.05-.73-.34-.95ZM39.14,68.38l-.72-10.41c-.02-.3-.19-.58-.46-.72-.14-.08-.29-.12-.45-.12-.14,0-.28.03-.41.1l-3.22,1.63,3.89-14.19.07,8.68c0,.33.18.63.47.78.29.16.63.15.91-.02l4.14-2.54-4.23,16.81Z"/>
  <path class="cls-3" d="M51.9,107.12c-.5-.04-.94.32-.98.82l-3.38,37.63h-17.72l-3.32-37.59c-.04-.5-.48-.87-.98-.82-.5.04-.87.48-.82.98l3.39,38.42c.04.47.43.83.9.83h19.38c.47,0,.86-.36.9-.82l3.45-38.45c.04-.5-.32-.94-.82-.98Z"/>
  <path class="cls-3" d="M55.5,101.25H21.69c-.5,0-.91.41-.91.91v5.07c0,.5.41.91.91.91h33.81c.5,0,.91-.41.91-.91v-5.07c0-.5-.41-.91-.91-.91ZM54.6,106.32H22.6v-3.26h32v3.26Z"/>
  <path class="cls-3" d="M38.74,118.17c-4.1,0-7.44,3.34-7.44,7.44s3.34,7.44,7.44,7.44,7.44-3.34,7.44-7.44-3.34-7.44-7.44-7.44ZM38.74,131.24c-3.11,0-5.63-2.53-5.63-5.63s2.53-5.63,5.63-5.63,5.63,2.53,5.63,5.63-2.53,5.63-5.63,5.63Z"/>
  <g>
    <g>
      <path class="cls-3" d="M168.18,107.17c-.46-.2-.99.01-1.19.47l-2.41,5.54c-.2.46.01.99.47,1.19.12.05.24.08.36.08.35,0,.68-.2.83-.54l2.41-5.54c.2-.46-.01-.99-.47-1.19Z"/>
      <g>
        <path class="cls-3" d="M189.46,114.15c-2.01-1.63-4.88-3.29-8.08-4.68-6.04-2.63-13.1-4.19-14.32-1.39-1.22,2.8,4.73,6.91,10.77,9.54,3.78,1.65,7.96,2.87,10.86,2.87,1.73,0,3-.44,3.46-1.48.57-1.31-.33-2.94-2.69-4.85ZM190.49,118.28c-.07.15-.85.64-3.47.26-2.4-.34-5.41-1.26-8.46-2.59-3.06-1.33-5.78-2.9-7.66-4.43-2.06-1.67-2.24-2.57-2.17-2.72.05-.11.48-.4,1.75-.4.46,0,1.03.04,1.72.14,2.4.34,5.41,1.26,8.46,2.59,3.06,1.33,5.78,2.9,7.66,4.43,2.06,1.67,2.24,2.57,2.17,2.72Z"/>
        <path class="cls-3" d="M189.48,122.87c-.46-.2-.99.01-1.19.47-.07.15-.85.64-3.47.26-2.4-.34-5.41-1.26-8.46-2.59-3.06-1.33-5.78-2.9-7.66-4.43-2.06-1.67-2.24-2.57-2.17-2.72.2-.46-.01-.99-.47-1.19-.46-.2-.99.01-1.19.47-.57,1.31.33,2.94,2.69,4.85,2.01,1.63,4.88,3.29,8.08,4.68,3.78,1.65,7.96,2.87,10.86,2.87,1.73,0,3-.44,3.46-1.48.2-.46-.01-.99-.47-1.19Z"/>
        <path class="cls-3" d="M191.62,117.78c-.46-.2-.99.01-1.19.47l-2.22,5.09c-.2.46.01.99.47,1.19.12.05.24.08.36.08.35,0,.68-.2.83-.54l2.22-5.09c.2-.46-.01-.99-.47-1.19Z"/>
      </g>
    </g>
    <path class="cls-3" d="M179,122.56c-.46-.2-.99.01-1.19.47l-8.09,18.58-3.85,3.4-.13-5.14,8.09-18.58c.2-.46-.01-.99-.47-1.19-.46-.2-.99.01-1.19.47l-8.17,18.77c-.05.12-.08.25-.08.39l.19,7.28c0,.35.22.67.54.81.12.05.24.08.36.08.22,0,.43-.08.6-.23l5.46-4.82c.1-.09.18-.2.23-.32l8.17-18.77c.2-.46-.01-.99-.47-1.19Z"/>
  </g>
  <path class="cls-3" d="M192.57,31.33h-6.49c-.49,0-.89.39-.91.88l-.09,2.68-15.79-.06h0c-.15,0-.3.04-.44.11l-10.78,5.98c-.29.16-.47.46-.47.79v37.74c0,.5.41.91.91.91h34.06c.5,0,.91-.41.91-.91v-47.22c0-.5-.41-.91-.91-.91ZM191.67,78.54h-32.24v-36.3l10.11-5.57,16.43.09h0c.49,0,.89-.42.91-.91l.09-2.72h4.7v45.41Z"/>
  <path class="cls-3" d="M169.14,31.39c-.5,0-.91.41-.91.91v3.5c0,.5.41.91.91.91s.91-.41.91-.91v-3.5c0-.5-.41-.91-.91-.91Z"/>
  <path class="cls-3" d="M186.11,31.33h-16.91c-.5,0-.91.41-.91.91s.41.91.91.91h16.91c.5,0,.91-.41.91-.91s-.41-.91-.91-.91Z"/>
  <path class="cls-3" d="M182.67,50.41h-14.25c-.5,0-.91.41-.91.91v14.25c0,.5.41.91.91.91h14.25c.5,0,.91-.41.91-.91v-14.25c0-.5-.41-.91-.91-.91ZM181.76,64.66h-12.44v-12.44h12.44v12.44Z"/>
  <path class="cls-3" d="M165.41,47.02c-.35-.35-.93-.35-1.28,0-.35.35-.35.93,0,1.28l3.67,3.67c.18.18.41.27.64.27s.46-.09.64-.27c.35-.35.35-.93,0-1.28l-3.67-3.67Z"/>
  <path class="cls-3" d="M183.28,64.9c-.35-.35-.93-.35-1.28,0-.35.35-.35.93,0,1.28l3.67,3.67c.18.18.41.27.64.27s.46-.09.64-.27c.35-.35.35-.93,0-1.28l-3.67-3.67Z"/>
  <path class="cls-3" d="M185.67,47.02l-3.67,3.67c-.35.35-.35.93,0,1.28.18.18.41.27.64.27s.46-.09.64-.27l3.67-3.67c.35-.35.35-.93,0-1.28-.35-.35-.93-.35-1.28,0Z"/>
  <path class="cls-3" d="M167.8,64.9l-3.67,3.67c-.35.35-.35.93,0,1.28.18.18.41.27.64.27s.46-.09.64-.27l3.67-3.67c.35-.35.35-.93,0-1.28-.35-.35-.93-.35-1.28,0Z"/>
  <path class="cls-3" d="M104.59,40.02h-4.71c-.5,0-.91.41-.91.91s.41.91.91.91h4.71c.5,0,.91-.41.91-.91s-.41-.91-.91-.91Z"/>
  <path class="cls-3" d="M111.78,36.04h-12.68c-.5,0-.91.41-.91.91v7.85c0,.5.41.91.91.91h12.68c.5,0,.91-.41.91-.91v-7.85c0-.5-.41-.91-.91-.91ZM110.87,43.88h-10.87v-6.04h10.87v6.04Z"/>
  <g>
    <path class="cls-3" d="M95.93,23.9c-.15-.48-.66-.74-1.14-.59-.48.15-.74.66-.59,1.14l4.08,12.83c.12.39.48.63.86.63.09,0,.18-.01.28-.04.48-.15.74-.66.59-1.14l-4.08-12.83Z"/>
    <g>
      <path class="cls-3" d="M105.59,12.75c-3.63,0-7.25,1.65-9.45,4.3-1.75,2.11-2.45,4.7-1.96,7.29.09.49.57.82,1.06.72.49-.09.82-.57.72-1.06-.49-2.63.58-4.61,1.58-5.8,1.87-2.25,4.95-3.65,8.06-3.65s6.61,1.62,8.46,4.03c.89,1.16,1.82,3.03,1.19,5.35-.13.48.16.98.64,1.11.08.02.16.03.24.03.4,0,.77-.27.87-.67.64-2.37.1-4.83-1.5-6.92-2.21-2.88-6.09-4.74-9.9-4.74Z"/>
      <path class="cls-3" d="M116.4,23.32c-.48-.16-.99.1-1.14.58l-4.24,12.83c-.16.47.1.99.58,1.14.09.03.19.05.28.05.38,0,.73-.24.86-.62l4.24-12.83c.16-.47-.1-.99-.58-1.14Z"/>
    </g>
  </g>
  <path class="cls-3" d="M103.69,22.21c-.5,0-.91.41-.91.91v13.4c0,.5.41.91.91.91s.91-.41.91-.91v-13.4c0-.5-.41-.91-.91-.91Z"/>
  <path class="cls-3" d="M107.19,22.21c-.5,0-.91.41-.91.91v13.4c0,.5.41.91.91.91s.91-.41.91-.91v-13.4c0-.5-.41-.91-.91-.91Z"/>
  <path class="cls-3" d="M109.6,19.48c-1.85,0-3.35,1.5-3.35,3.35,0,.5.41.91.91.91s.91-.41.91-.91c0-.85.69-1.54,1.54-1.54s1.54.69,1.54,1.54c0,.9-.63,1.61-1.44,1.61-.5,0-.91.41-.91.91s.41.91.91.91c1.8,0,3.26-1.54,3.26-3.43s-1.5-3.35-3.35-3.35Z"/>
  <path class="cls-3" d="M109.67,24.44h-8.57c-.5,0-.91.41-.91.91s.41.91.91.91h8.57c.5,0,.91-.41.91-.91s-.41-.91-.91-.91Z"/>
  <path class="cls-3" d="M101.18,19.48c-1.85,0-3.35,1.5-3.35,3.35s1.46,3.43,3.26,3.43c.5,0,.91-.41.91-.91s-.41-.91-.91-.91c-.81,0-1.44-.71-1.44-1.61,0-.85.69-1.54,1.54-1.54s1.6.74,1.6,1.58c0,.5.41.91.91.91s.91-.41.91-.91c0-1.84-1.56-3.39-3.42-3.39Z"/>
  <g>
    <path class="cls-3" d="M107.77,80.28c-.16-.27-.45-.41-.76-.41h-.01c-.31,0-.6.13-.76.39l-7.56,11.74c-.27.42-.15.98.27,1.25.15.1.32.14.49.14.3,0,.59-.15.76-.42l6.77-10.54,5.16,8.61c.26.43.81.57,1.24.32.43-.26.57-.81.31-1.23l-5.91-9.85Z"/>
    <path class="cls-3" d="M113.41,90.04l-5.76-1.34c-.49-.11-.97.19-1.09.68-.11.49.19.97.68,1.09l5.76,1.34c.07.02.14.02.21.02.41,0,.78-.28.88-.7.11-.49-.19-.97-.68-1.09Z"/>
    <path class="cls-3" d="M114.79,84.26c-.49-.11-.97.19-1.09.68l-1.34,5.76c-.11.49.19.97.68,1.09.07.02.14.02.21.02.41,0,.78-.28.88-.7l1.34-5.76c.11-.49-.19-.97-.68-1.09Z"/>
    <g>
      <path class="cls-3" d="M116.42,94.22c-.27-.42-.83-.55-1.25-.28-.42.27-.55.83-.28,1.25l7.32,11.58-14.36.04c-.5,0-.9.41-.9.91,0,.5.41.9.91.9h0l16-.04c.33,0,.63-.18.79-.47.16-.29.15-.64-.03-.92l-8.2-12.96Z"/>
      <path class="cls-3" d="M108.37,107.03c-.35-.35-.93-.35-1.28,0-.35.35-.35.93,0,1.28l4.18,4.18c.18.18.41.27.64.27s.46-.09.64-.27c.35-.35.35-.93,0-1.28l-4.18-4.18Z"/>
      <path class="cls-3" d="M111.28,102.8l-4.18,4.18c-.35.35-.35.93,0,1.28.18.18.41.27.64.27s.46-.09.64-.27l4.18-4.18c.35-.35.35-.93,0-1.28-.35-.35-.93-.35-1.28,0Z"/>
    </g>
    <path class="cls-3" d="M101.45,106.92h-11.47l7.72-10.28c.3-.4.22-.97-.18-1.27-.4-.3-.97-.22-1.27.18l-8.81,11.73c-.21.27-.24.64-.09.95.15.31.47.5.81.5h13.28c.5,0,.91-.41.91-.91s-.41-.91-.91-.91Z"/>
    <path class="cls-3" d="M96.99,95.1l-5.84.96c-.49.08-.83.55-.75,1.04.07.44.46.76.89.76.05,0,.1,0,.15-.01l5.84-.96c.49-.08.83-.55.75-1.04-.08-.49-.55-.83-1.04-.75Z"/>
    <path class="cls-3" d="M98.15,96.05c-.08-.49-.55-.83-1.04-.75-.49.08-.83.55-.75,1.04l.96,5.84c.07.44.46.76.89.76.05,0,.1,0,.15-.01.49-.08.83-.55.75-1.04l-.96-5.84Z"/>
  </g>
  <g>
    <path class="cls-3" d="M92.15,28.85l-1.18.5c-.46.2-.67.73-.48,1.19.15.34.48.55.83.55.12,0,.24-.02.36-.07l1.18-.5c.46-.2.67-.73.48-1.19-.2-.46-.73-.67-1.19-.48Z"/>
    <g>
      <path class="cls-3" d="M60.24,42.5l-2.36,1.01c-.46.2-.67.73-.48,1.19.15.34.48.55.83.55.12,0,.24-.02.36-.07l2.36-1.01c.46-.2.67-.73.48-1.19-.2-.46-.73-.67-1.19-.48Z"/>
      <path class="cls-3" d="M66.86,39.67l-2.36,1.01c-.46.2-.67.73-.48,1.19.15.34.48.55.83.55.12,0,.24-.02.36-.07l2.36-1.01c.46-.2.67-.73.48-1.19-.2-.46-.73-.67-1.19-.48Z"/>
      <path class="cls-3" d="M80.1,34.01l-2.36,1.01c-.46.2-.67.73-.48,1.19.15.34.48.55.83.55.12,0,.24-.02.36-.07l2.36-1.01c.46-.2.67-.73.48-1.19-.2-.46-.73-.67-1.19-.48Z"/>
      <path class="cls-3" d="M86.72,31.17l-2.36,1.01c-.46.2-.67.73-.48,1.19.15.34.48.55.83.55.12,0,.24-.02.36-.07l2.36-1.01c.46-.2.67-.73.48-1.19-.2-.46-.73-.67-1.19-.48Z"/>
      <path class="cls-3" d="M73.48,36.84l-2.36,1.01c-.46.2-.67.73-.48,1.19.15.34.48.55.83.55.12,0,.24-.02.36-.07l2.36-1.01c.46-.2.67-.73.48-1.19-.2-.46-.73-.67-1.19-.48Z"/>
    </g>
    <path class="cls-3" d="M53.62,45.33l-1.18.5c-.46.2-.67.73-.48,1.19.15.34.48.55.83.55.12,0,.24-.02.36-.07l1.18-.5c.46-.2.67-.73.48-1.19-.2-.46-.73-.67-1.19-.48Z"/>
  </g>
  <g>
    <path class="cls-3" d="M118.94,28.15l-1.18-.5c-.46-.2-.99.02-1.19.48-.2.46.02.99.48,1.19l1.18.5c.12.05.24.07.36.07.35,0,.69-.21.83-.55.2-.46-.02-.99-.48-1.19Z"/>
    <g>
      <path class="cls-3" d="M132.18,33.81l-2.36-1.01c-.46-.2-.99.02-1.19.48-.2.46.02.99.48,1.19l2.36,1.01c.12.05.24.07.36.07.35,0,.69-.21.83-.55.2-.46-.02-.99-.48-1.19Z"/>
      <path class="cls-3" d="M125.56,30.98l-2.36-1.01c-.46-.2-.99.02-1.19.48-.2.46.02.99.48,1.19l2.36,1.01c.12.05.24.07.36.07.35,0,.69-.21.83-.55.2-.46-.02-.99-.48-1.19Z"/>
      <path class="cls-3" d="M145.42,39.47l-2.36-1.01c-.46-.2-.99.02-1.19.48-.2.46.02.99.48,1.19l2.36,1.01c.12.05.24.07.36.07.35,0,.69-.21.83-.55.2-.46-.02-.99-.48-1.19Z"/>
      <path class="cls-3" d="M152.04,42.3l-2.36-1.01c-.46-.2-.99.02-1.19.48-.2.46.02.99.48,1.19l2.36,1.01c.12.05.24.07.36.07.35,0,.69-.21.83-.55.2-.46-.02-.99-.48-1.19Z"/>
      <path class="cls-3" d="M138.8,36.64l-2.36-1.01c-.46-.2-.99.02-1.19.48-.2.46.02.99.48,1.19l2.36,1.01c.12.05.24.07.36.07.35,0,.69-.21.83-.55.2-.46-.02-.99-.48-1.19Z"/>
    </g>
    <path class="cls-3" d="M157.47,44.62l-1.17-.5c-.46-.2-.99.02-1.19.48-.2.46.02.99.48,1.19l1.17.5c.12.05.24.07.36.07.35,0,.69-.21.83-.55.2-.46-.02-.99-.48-1.19Z"/>
  </g>
  <g>
    <path class="cls-3" d="M175.48,80.48h0c-.5,0-.9.38-.9.88v1.25c0,.5.41.9.91.9h0c.5,0,.9-.39.9-.89v-1.26c0-.5-.41-.87-.91-.87Z"/>
    <g>
      <path class="cls-3" d="M175.51,89.65h0c.5,0,.9-.39.9-.89v-2.19c-.01-.5-.42-.91-.92-.91h0c-.5,0-.9.4-.9.9v2.2c.01.5.42.88.92.88Z"/>
      <path class="cls-3" d="M175.56,98.11h0c-.5,0-.9.39-.9.89v2.19c.01.5.42.9.92.9h0c.5,0,.9-.4.9-.9v-2.2c-.01-.5-.42-.88-.92-.88Z"/>
      <path class="cls-3" d="M175.54,95.93h0c.5,0,.9-.44.9-.94v-2.24c-.01-.5-.42-.92-.92-.92h0c-.5,0-.9.44-.9.94v2.24c.01.5.42.92.92.92Z"/>
    </g>
    <path class="cls-3" d="M175.58,104.27h0c-.5,0-.9.42-.9.92v1.29c0,.5.41.93.91.93h0c.5-.12.9-.44.9-.94v-1.31c0-.5-.41-.9-.91-.9Z"/>
  </g>
  <g>
    <path class="cls-3" d="M38.56,84.82h0c-.5,0-.9.36-.9.86v1.65c0,.5.41.87.91.87h0c.5,0,.9-.36.9-.86v-1.65c0-.5-.41-.87-.91-.87Z"/>
    <path class="cls-3" d="M38.59,90.86h0c-.5,0-.9.43-.9.94v2.49c.01.5.42.92.92.92h0c.5,0,.9-.44.9-.94v-2.49c-.01-.5-.42-.92-.92-.92Z"/>
    <path class="cls-3" d="M38.62,97.75h0c-.5,0-.9.42-.9.92v1.7c0,.5.41.87.91.87h0c.5,0,.9-.4.9-.9v-1.68c0-.5-.41-.93-.91-.93Z"/>
  </g>
  <g>
    <path class="cls-3" d="M158.23,145.62l-1.86.62c-.47.16-.73.67-.57,1.15.13.38.48.62.86.62.1,0,.19-.02.29-.05l1.86-.62c.47-.16.73-.67.57-1.15-.16-.47-.67-.73-1.15-.57Z"/>
    <g>
      <path class="cls-3" d="M89.61,156.54l-3.62-1.23c-.47-.16-.99.09-1.15.57-.16.47.09.99.57,1.15l3.62,1.23c.1.03.19.05.29.05.38,0,.73-.24.86-.62.16-.47-.09-.99-.57-1.15Z"/>
      <path class="cls-3" d="M109.29,161.96l-1.84.62-1.2-.41c-.47-.16-.99.09-1.15.57-.16.47.09.99.57,1.15l1.49.5c.09.03.19.05.29.05s.19-.02.29-.05l2.13-.71c.47-.16.73-.67.57-1.15-.16-.47-.67-.73-1.15-.57Z"/>
      <path class="cls-3" d="M99.74,159.97l-3.62-1.23c-.47-.16-.99.09-1.15.57-.16.47.09.99.57,1.15l3.62,1.23c.1.03.19.05.29.05.38,0,.73-.24.86-.62.16-.47-.09-.99-.57-1.15Z"/>
      <path class="cls-3" d="M79.49,153.11l-3.62-1.23c-.47-.16-.99.09-1.15.57-.16.47.09.99.57,1.15l3.62,1.23c.1.03.19.05.29.05.38,0,.73-.24.86-.62.16-.47-.09-.99-.57-1.15Z"/>
      <path class="cls-3" d="M69.36,149.68l-3.62-1.23c-.47-.16-.99.09-1.15.57-.16.47.09.99.57,1.15l3.62,1.23c.1.03.19.05.29.05.38,0,.73-.24.86-.62.16-.47-.09-.99-.57-1.15Z"/>
      <path class="cls-3" d="M139.71,151.8l-3.62,1.21c-.47.16-.73.67-.57,1.15.13.38.48.62.86.62.1,0,.19-.02.29-.05l3.62-1.21c.47-.16.73-.67.57-1.15-.16-.47-.67-.73-1.15-.57Z"/>
      <path class="cls-3" d="M149.85,148.41l-3.62,1.21c-.47.16-.73.67-.57,1.15.13.38.48.62.86.62.1,0,.19-.02.29-.05l3.62-1.21c.47-.16.73-.67.57-1.15-.16-.47-.67-.73-1.15-.57Z"/>
      <path class="cls-3" d="M129.57,155.19l-3.62,1.21c-.47.16-.73.67-.57,1.15.13.38.48.62.86.62.1,0,.19-.02.29-.05l3.62-1.21c.47-.16.73-.67.57-1.15-.16-.47-.67-.73-1.15-.57Z"/>
      <path class="cls-3" d="M119.43,158.58l-3.62,1.21c-.47.16-.73.67-.57,1.15.13.38.48.62.86.62.1,0,.19-.02.29-.05l3.62-1.21c.47-.16.73-.67.57-1.15-.16-.47-.67-.73-1.15-.57Z"/>
    </g>
    <path class="cls-3" d="M59.24,146.25l-1.85-.63c-.47-.16-.99.09-1.15.57-.16.47.09.99.57,1.15l1.85.63c.1.03.19.05.29.05.38,0,.73-.24.86-.62.16-.47-.09-.99-.57-1.15Z"/>
  </g>
  <g>
    <path class="cls-3" d="M180.74,149.94c-.57-.35-1.31-.18-1.66.38-.36.57-.18,1.31.38,1.66.2.12.42.18.64.18.4,0,.79-.2,1.02-.57.36-.57.18-1.31-.38-1.67Z"/>
    <path class="cls-3" d="M179.2,154.33c-.63.22-.96.91-.74,1.54.18.5.64.81,1.14.81.13,0,.27-.02.4-.07.63-.22.96-.91.74-1.54-.22-.63-.91-.96-1.54-.74Z"/>
    <path class="cls-3" d="M187.36,150.89s0,0,0,0c.24.24.54.35.85.35s.62-.12.85-.35c.47-.47.47-1.71,0-1.71h0s0,0,0,0c0,0,0,0,0-.01-.47-.47-1.24-.47-1.71,0-.47.47-.47,1.24,0,1.71,0,0,0,0,0,0Z"/>
    <path class="cls-3" d="M183.2,157.52c-.63-.22-1.32.11-1.54.74-.22.63.11,1.32.74,1.54.13.05.26.07.4.07.5,0,.97-.31,1.14-.81.22-.63-.11-1.32-.74-1.54Z"/>
    <path class="cls-3" d="M186.66,157.13c-.56.36-.73,1.1-.38,1.67.23.36.62.56,1.02.56.22,0,.44-.06.64-.19.56-.36.73-1.1.38-1.67-.36-.56-1.1-.73-1.67-.38Z"/>
    <path class="cls-3" d="M189.85,153.11c-.66-.07-1.26.4-1.33,1.07-.07.66.4,1.26,1.07,1.33.05,0,.09,0,.14,0,.61,0,1.13-.46,1.2-1.07.07-.66-.4-1.26-1.07-1.33Z"/>
    <path class="cls-3" d="M183.79,147.34c-.66.07-1.14.67-1.06,1.34.07.62.59,1.07,1.2,1.07.05,0,.09,0,.14,0,.66-.08,1.14-.68,1.06-1.34-.08-.66-.67-1.14-1.34-1.06Z"/>
  </g>
  <g>
    <path class="cls-3" d="M153.98,96.36c-.66-.07-1.26.4-1.33,1.07-.07.66.4,1.26,1.07,1.33.05,0,.09,0,.14,0,.61,0,1.13-.46,1.2-1.07.07-.66-.4-1.26-1.07-1.33Z"/>
    <path class="cls-3" d="M151.5,94.13c.24.24.55.35.85.35s.62-.12.86-.35c.47-.47.47-1.24,0-1.71,0,0,0,0,0,0,0,0,0,0,0,0-.47-.47-1.24-.47-1.71,0-.47.47-.47,1.24,0,1.71,0,0,0,0,0,0Z"/>
    <path class="cls-3" d="M143.33,97.57c-.63.22-.96.91-.74,1.54.18.5.64.81,1.14.81.13,0,.27-.02.4-.07.63-.22.96-.91.74-1.54-.22-.63-.91-.96-1.54-.74Z"/>
    <path class="cls-3" d="M144.87,93.18c-.57-.35-1.31-.18-1.66.38-.36.57-.18,1.31.38,1.66.2.12.42.18.64.18.4,0,.79-.2,1.02-.57.36-.57.18-1.31-.38-1.67Z"/>
    <path class="cls-3" d="M150.8,100.37c-.56.36-.73,1.1-.38,1.67.23.36.62.56,1.02.56.22,0,.44-.06.64-.19.56-.36.73-1.1.38-1.67-.36-.56-1.1-.73-1.67-.38Z"/>
    <path class="cls-3" d="M147.34,100.77c-.63-.22-1.32.12-1.54.75-.22.63.11,1.54.74,1.54h0c.13,0,.26.06.4.06.5,0,.97-.32,1.14-.82.22-.63-.11-1.32-.74-1.54Z"/>
    <path class="cls-3" d="M147.92,90.59c-.66.08-1.14.67-1.06,1.34.07.62.59,1.07,1.2,1.07.05,0,.09,0,.14,0,.66-.08,1.14-.68,1.06-1.34-.08-.66-.67-1.14-1.34-1.06Z"/>
  </g>
  <g>
    <path class="cls-3" d="M146.59,21c-.63.22-.96.91-.74,1.54.18.5.64.81,1.14.81.13,0,.27-.02.4-.07.63-.22.96-.91.74-1.54-.22-.63-.91-.96-1.54-.74Z"/>
    <path class="cls-3" d="M154.75,17.56s0,0,0,0c0,0,0,0,0,0h0,0c.24.24.55.36.85.36s.62-.11.86-.35c.47-.47.47-1.24,0-1.71,0,0-.01-.01-.02-.02-.47-.47-1.24-.46-1.71,0-.47.47-.47,1.24,0,1.71,0,0,0,0,0,0Z"/>
    <polygon class="cls-3" points="154.76 17.56 154.76 17.56 154.76 17.56 154.76 17.56"/>
    <path class="cls-3" d="M148.13,16.61c-.57-.35-1.31-.18-1.66.38-.36.57-.18,1.31.38,1.66.2.13.42.18.64.18.4,0,.79-.2,1.02-.57.36-.57.18-1.31-.38-1.67Z"/>
    <path class="cls-3" d="M150.6,24.2c-.63-.22-1.32.11-1.54.74-.22.63.11,1.32.74,1.54.13.04.26.07.4.07.5,0,.97-.31,1.14-.81.22-.63-.11-1.32-.74-1.54Z"/>
    <path class="cls-3" d="M154.06,23.81c-.56.36-.73,1.1-.38,1.67.23.36.62.56,1.02.56.22,0,.44-.06.64-.19.56-.36.73-1.1.38-1.67-.36-.56-1.1-.73-1.67-.38Z"/>
    <path class="cls-3" d="M157.24,19.79c-.66-.07-1.26.4-1.33,1.07-.07.66.4,1.26,1.07,1.33.05,0,.09,0,.14,0,.61,0,1.13-.46,1.2-1.07.07-.66-.4-1.26-1.07-1.33Z"/>
    <path class="cls-3" d="M151.18,14.02c-.66.08-1.14.67-1.06,1.34.07.62.59,1.1,1.2,1.1.05,0,.09.02.14.02h0c.66-.12,1.14-.7,1.06-1.36-.08-.66-.68-1.16-1.34-1.09Z"/>
  </g>
  <g>
    <path class="cls-3" d="M56.99,84.4c-.63.22-.96.91-.74,1.54.18.5.64.81,1.14.81.13,0,.27-.02.4-.07.63-.22.96-.91.74-1.54-.22-.63-.91-.96-1.54-.74Z"/>
    <path class="cls-3" d="M58.53,80.02c-.57-.35-1.31-.18-1.67.38-.35.57-.18,1.31.38,1.66.2.12.42.18.64.18.4,0,.79-.2,1.02-.57.35-.57.18-1.31-.38-1.67Z"/>
    <path class="cls-3" d="M65.15,80.97c.24.24.55.36.85.36s.62-.12.85-.35c.47-.47.47-1.71,0-1.71h0s0,0,0,0c0,0,0,0,0-.01-.47-.47-1.24-.47-1.71,0-.47.47-.47,1.24,0,1.71,0,0,0,0,0,0Z"/>
    <path class="cls-3" d="M60.99,87.6c-.63-.22-1.32.11-1.54.74-.22.63.11,1.32.74,1.54.13.04.26.07.4.07.5,0,.97-.31,1.14-.81.22-.63-.11-1.32-.74-1.54Z"/>
    <path class="cls-3" d="M67.64,83.19c-.66-.07-1.26.4-1.33,1.07-.07.66.4,1.26,1.07,1.33.05,0,.09,0,.14,0,.61,0,1.13-.46,1.2-1.07.07-.66-.4-1.26-1.07-1.33Z"/>
    <path class="cls-3" d="M64.45,87.21c-.56.36-.73,1.1-.38,1.67.23.36.62.56,1.02.56.22,0,.44-.06.64-.19.56-.36.73-1.1.38-1.67-.36-.56-1.1-.73-1.67-.38Z"/>
    <path class="cls-3" d="M61.58,77.42c-.66.08-1.14.67-1.06,1.34.07.62.59,1.07,1.2,1.07.05,0,.09,0,.14,0,.66-.08,1.14-.68,1.06-1.34-.08-.66-.67-1.14-1.34-1.06Z"/>
  </g>
  <g>
    <path class="cls-3" d="M17.95,155.13c-.57-.35-1.31-.18-1.67.38-.35.57-.18,1.31.38,1.66.2.13.42.18.64.18.4,0,.79-.2,1.02-.57.36-.57.18-1.31-.38-1.67Z"/>
    <path class="cls-3" d="M20.41,162.72c-.63-.22-1.32.11-1.54.74-.22.63.11,1.32.74,1.54.13.04.26.07.4.07.5,0,.97-.31,1.14-.81.22-.63-.11-1.32-.74-1.54Z"/>
    <path class="cls-3" d="M16.41,159.52c-.63.22-.96.91-.74,1.54.18.5.64.81,1.14.81.13,0,.27-.02.4-.07.63-.22.96-.91.74-1.54-.22-.63-.91-.96-1.54-.74Z"/>
    <path class="cls-3" d="M24.58,156.07h0c.24.24.55.36.85.36s.62-.11.86-.35c.47-.47.47-1.24,0-1.71,0,0,0,0,0,0,0,0,0,0,0-.01-.47-.47-1.24-.47-1.71,0-.47.47-.47,1.23,0,1.71,0,0,0,0,0,0Z"/>
    <path class="cls-3" d="M21,152.54c-.66.08-1.14.67-1.06,1.34.07.62.59,1.1,1.2,1.1.05,0,.09.02.14.02h0c.66-.12,1.14-.7,1.06-1.36-.08-.66-.68-1.16-1.34-1.09Z"/>
    <path class="cls-3" d="M27.06,158.31c-.66-.07-1.26.4-1.33,1.07-.07.66.4,1.26,1.07,1.33.05,0,.09,0,.14,0,.61,0,1.13-.46,1.2-1.07.07-.66-.4-1.26-1.07-1.33Z"/>
    <path class="cls-3" d="M23.92,162.32h0c-.6.36-.76,1.1-.4,1.67.23.36.62.56,1.02.56.22,0,.44-.06.64-.19.56-.36.75-1.1.39-1.67-.36-.56-1.16-.73-1.64-.38Z"/>
  </g>
  <g>
    <path class="cls-3" d="M16.62,15.17c-.57-.35-1.31-.18-1.66.38-.36.57-.18,1.31.38,1.66.2.12.42.18.64.18.4,0,.79-.2,1.02-.57.36-.57.18-1.31-.38-1.67Z"/>
    <path class="cls-3" d="M15.08,19.55c-.63.22-.96.91-.74,1.54.18.5.64.81,1.14.81.13,0,.27-.02.4-.07.63-.22.96-.91.74-1.54-.22-.63-.91-.96-1.54-.74Z"/>
    <path class="cls-3" d="M23.24,16.12s0,0,0,0c.24.24.54.35.85.35s.62-.12.85-.35c.47-.47.47-1.24,0-1.71,0,0,0,0-.01-.01-.47-.47-1.24-.47-1.71,0-.47.47-.47,1.24,0,1.71,0,0,0,0,0,0Z"/>
    <path class="cls-3" d="M25.73,18.34c-.66-.07-1.26.4-1.33,1.07-.07.66.4,1.26,1.07,1.33.05,0,.09,0,.14,0,.61,0,1.13-.46,1.2-1.07.07-.66-.4-1.26-1.07-1.33Z"/>
    <path class="cls-3" d="M19.09,22.75c-.63-.22-1.32.11-1.54.74-.22.63.11,1.32.74,1.54.13.05.26.07.4.07.5,0,.97-.31,1.14-.81.22-.63-.11-1.32-.74-1.54Z"/>
    <path class="cls-3" d="M22.55,22.36c-.56.36-.73,1.1-.38,1.67.23.36.62.56,1.02.56.22,0,.44-.06.64-.19.56-.36.73-1.1.38-1.67-.36-.56-1.1-.73-1.67-.38Z"/>
    <path class="cls-3" d="M19.67,12.57c-.66.07-1.14.67-1.06,1.34.07.62.59,1.07,1.2,1.07.05,0,.09,0,.14,0,.66-.08,1.14-.68,1.06-1.34-.08-.66-.67-1.14-1.34-1.06Z"/>
  </g>
  <g>
    <path class="cls-3" d="M191.36,93.22c-.5,0-.91.41-.91.91v5.8c0,.5.41.91.91.91s.91-.41.91-.91v-5.8c0-.5-.41-.91-.91-.91Z"/>
    <path class="cls-3" d="M194.32,96.18h-5.8c-.5,0-.91.41-.91.91s.41.91.91.91h5.8c.5,0,.91-.41.91-.91s-.41-.91-.91-.91Z"/>
  </g>
  <g>
    <path class="cls-3" d="M62.27,121.84c-.5,0-.91.41-.91.91v5.8c0,.5.41.91.91.91s.91-.41.91-.91v-5.8c0-.5-.41-.91-.91-.91Z"/>
    <path class="cls-3" d="M65.23,124.8h-5.8c-.5,0-.91.41-.91.91s.41.91.91.91h5.8c.5,0,.91-.41.91-.91s-.41-.91-.91-.91Z"/>
  </g>
  <g>
    <path class="cls-3" d="M153.81,154.32c-.5,0-.91.41-.91.91v5.8c0,.5.41.91.91.91s.91-.41.91-.91v-5.8c0-.5-.41-.91-.91-.91Z"/>
    <path class="cls-3" d="M156.76,157.28h-5.8c-.5,0-.91.41-.91.91s.41.91.91.91h5.8c.5,0,.91-.41.91-.91s-.41-.91-.91-.91Z"/>
  </g>
  <g>
    <path class="cls-3" d="M65.17,16.65c-.5,0-.91.41-.91.91v5.8c0,.5.41.91.91.91s.91-.41.91-.91v-5.8c0-.5-.41-.91-.91-.91Z"/>
    <path class="cls-3" d="M68.12,19.61h-5.8c-.5,0-.91.41-.91.91s.41.91.91.91h5.8c.5,0,.91-.41.91-.91s-.41-.91-.91-.91Z"/>
  </g>
  <g>
    <path class="cls-3" d="M19.4,77.76c-.5,0-.91.41-.91.91v5.8c0,.5.41.91.91.91s.91-.41.91-.91v-5.8c0-.5-.41-.91-.91-.91Z"/>
    <path class="cls-3" d="M22.35,80.72h-5.8c-.5,0-.91.41-.91.91s.41.91.91.91h5.8c.5,0,.91-.41.91-.91s-.41-.91-.91-.91Z"/>
  </g>
  <g>
    <path class="cls-3" d="M59.37,152.63c-.5,0-.91.41-.91.91v5.8c0,.5.41.91.91.91s.91-.41.91-.91v-5.8c0-.5-.41-.91-.91-.91Z"/>
    <path class="cls-3" d="M62.33,155.59h-5.8c-.5,0-.91.41-.91.91s.41.91.91.91h5.8c.5,0,.91-.41.91-.91s-.41-.91-.91-.91Z"/>
  </g>
</svg>