<?xml version="1.0" encoding="UTF-8"?>
<svg id="_레이어_1" data-name="레이어 1" xmlns="http://www.w3.org/2000/svg" version="1.1" viewBox="0 0 120 30">
  <defs>
    <style>
      .cls-1 {
        fill: #9747ff;
        stroke-width: 0px;
      }
    </style>
  </defs>
  <path class="cls-1" d="M19.97,26.12c-3.59,0-5.79-1.66-6.59-4.99l-.72-2.95h-1.35v7.48h-6.28V5.94h8.68c1.64,0,3.09.25,4.33.75,1.26.48,2.24,1.16,2.92,2.03.69.88,1.03,1.89,1.03,3.04,0,1.28-.32,2.36-.95,3.24-.61.86-1.57,1.57-2.87,2.12.13.73.29,1.39.46,1.98.23.73.54,1.23.95,1.52s.98.43,1.75.43c.27,0,.69-.04,1.26-.11v4.67c-.9.34-1.78.52-2.64.52ZM12.4,14.17c1.41,0,2.41-.15,2.98-.46.59-.32.89-.87.89-1.63,0-.65-.24-1.12-.72-1.4-.48-.31-1.23-.46-2.26-.46h-1.98v3.95h1.09ZM25.62,5.94h13.84v4.36h-6.88v3.58h6.28v3.61h-6.28v3.81h6.88v4.36h-13.84V5.94ZM42.81,11.5h6.05v2.92c.44-1.13,1.03-1.96,1.78-2.49.76-.55,1.65-.83,2.67-.83l.83,4.67c-1.82,0-3.15.2-4.01.6-.84.38-1.26.99-1.26,1.83v7.45h-6.05v-14.16ZM62.51,25.89c-1.24,0-2.41-.32-3.5-.97-1.07-.67-1.93-1.57-2.58-2.69-.65-1.15-.97-2.42-.97-3.81s.32-2.62.97-3.73c.65-1.13,1.52-2.01,2.61-2.64,1.09-.63,2.24-.95,3.47-.95.99,0,1.91.28,2.75.83.86.55,1.51,1.39,1.95,2.49v-3.32h6.02v14.56h-6.02v-2.67c-.96,1.93-2.52,2.89-4.7,2.89ZM64.37,21.36c.76,0,1.41-.27,1.95-.8.55-.55.85-1.2.89-1.95v-.23c-.04-.76-.34-1.41-.92-1.95-.55-.53-1.19-.8-1.92-.8-.8,0-1.49.29-2.06.86-.55.55-.83,1.22-.83,2.01s.29,1.48.86,2.03,1.25.83,2.03.83ZM83.78,25.89c-1.53,0-2.89-.31-4.07-.92-1.17-.63-2.08-1.51-2.75-2.64-.65-1.13-.97-2.41-.97-3.84s.34-2.63,1.03-3.75c.69-1.13,1.62-2.02,2.81-2.67,1.18-.65,2.5-.97,3.95-.97,1.85,0,3.31.38,4.38,1.15l-.54,3.81c-1.09-.32-1.99-.49-2.69-.49-.92,0-1.64.27-2.18.8-.53.52-.8,1.22-.8,2.12s.27,1.61.8,2.15c.53.53,1.24.8,2.12.8.76,0,1.66-.16,2.69-.49l.54,4.01c-.65.32-1.31.55-1.98.69-.67.15-1.45.23-2.35.23ZM95.84,25.89c-1.62,0-2.89-.51-3.78-1.52-.88-1.03-1.32-2.44-1.32-4.21V6.77l6.05-.89v13.84c0,.53.12.93.37,1.18.27.23.73.34,1.38.34.48,0,.95-.11,1.4-.34l.2,4.01c-1.28.65-2.71.97-4.3.97ZM109.62,25.89c-1.59,0-3-.32-4.24-.95-1.22-.65-2.18-1.53-2.87-2.64-.69-1.13-1.03-2.4-1.03-3.81s.35-2.74,1.06-3.87c.71-1.13,1.66-2,2.87-2.61,1.2-.61,2.54-.92,4.01-.92s2.62.32,3.61.95c1.01.61,1.77,1.45,2.26,2.52.5,1.05.75,2.24.75,3.55,0,.34-.02.59-.06.75l-8.6,1.12c.23.67.6,1.16,1.12,1.46.52.29,1.19.43,2.03.43,1.3,0,2.7-.33,4.21-1l.72,3.84c-1.78.78-3.73,1.18-5.85,1.18ZM111.6,16.37c-.31-1.2-1.03-1.81-2.18-1.81-.69,0-1.23.26-1.63.77-.4.52-.61,1.18-.63,2.01l4.44-.97Z"/>
</svg>