<?xml version="1.0" encoding="UTF-8"?>
<svg id="_레이어_1" data-name="레이어 1" xmlns="http://www.w3.org/2000/svg" version="1.1" viewBox="0 0 76 19">
  <defs>
    <style>
      .cls-1 {
        fill: #9747ff;
        stroke-width: 0px;
      }
    </style>
  </defs>
  <path class="cls-1" d="M13.42,15.02c-2.14,0-3.44-.99-3.92-2.97l-.43-1.76h-.8v4.45h-3.73V3.02h5.16c.98,0,1.83.15,2.57.44.75.28,1.33.69,1.74,1.21.41.52.61,1.12.61,1.81,0,.76-.19,1.4-.56,1.93-.36.51-.93.93-1.7,1.26.08.43.17.82.27,1.18.14.43.32.73.56.9s.59.26,1.04.26c.16,0,.41-.02.75-.07v2.78c-.53.2-1.06.31-1.57.31ZM8.92,7.91c.84,0,1.43-.09,1.77-.27.35-.19.53-.52.53-.97,0-.39-.14-.66-.43-.83-.28-.18-.73-.27-1.35-.27h-1.18v2.35h.65ZM16.78,3.02h8.23v2.59h-4.09v2.13h3.73v2.15h-3.73v2.27h4.09v2.59h-8.23V3.02ZM27,6.32h3.6v1.74c.26-.67.61-1.16,1.06-1.48.45-.33.98-.49,1.58-.49l.49,2.78c-1.08,0-1.87.12-2.39.36-.5.23-.75.59-.75,1.09v4.43h-3.6V6.32ZM38.71,14.88c-.74,0-1.43-.19-2.08-.58-.64-.4-1.15-.93-1.53-1.6-.39-.68-.58-1.44-.58-2.27s.19-1.56.58-2.22c.39-.67.9-1.19,1.55-1.57.65-.37,1.33-.56,2.06-.56.59,0,1.14.16,1.64.49.51.33.9.82,1.16,1.48v-1.98h3.58v8.66h-3.58v-1.58c-.57,1.15-1.5,1.72-2.79,1.72ZM39.82,12.19c.45,0,.84-.16,1.16-.48.33-.33.51-.72.53-1.16v-.14c-.02-.45-.2-.84-.55-1.16-.33-.32-.71-.48-1.14-.48-.48,0-.89.17-1.23.51-.33.33-.49.73-.49,1.19s.17.88.51,1.21.74.49,1.21.49ZM51.36,14.88c-.91,0-1.72-.18-2.42-.55-.69-.37-1.24-.9-1.64-1.57-.39-.67-.58-1.43-.58-2.28s.2-1.56.61-2.23c.41-.67.97-1.2,1.67-1.58.7-.39,1.49-.58,2.35-.58,1.1,0,1.97.23,2.61.68l-.32,2.27c-.65-.19-1.18-.29-1.6-.29-.55,0-.98.16-1.3.48-.32.31-.48.73-.48,1.26s.16.96.48,1.28c.32.32.74.48,1.26.48.45,0,.99-.1,1.6-.29l.32,2.39c-.39.19-.78.33-1.18.41-.4.09-.86.14-1.4.14ZM58.53,14.88c-.97,0-1.72-.3-2.25-.9-.52-.61-.78-1.45-.78-2.5V3.51l3.6-.53v8.23c0,.32.07.55.22.7.16.14.43.2.82.2.28,0,.56-.07.83-.2l.12,2.39c-.76.39-1.61.58-2.56.58ZM66.72,14.88c-.94,0-1.78-.19-2.52-.56-.73-.39-1.3-.91-1.7-1.57-.41-.67-.61-1.43-.61-2.27s.21-1.63.63-2.3c.42-.67.99-1.19,1.7-1.55.72-.36,1.51-.55,2.39-.55s1.56.19,2.15.56c.6.36,1.05.86,1.35,1.5.3.62.44,1.33.44,2.11,0,.2-.01.35-.03.44l-5.11.66c.14.4.36.69.66.87.31.17.71.26,1.21.26.77,0,1.61-.2,2.5-.6l.43,2.28c-1.06.47-2.22.7-3.48.7ZM67.9,9.22c-.18-.72-.61-1.07-1.3-1.07-.41,0-.73.15-.97.46-.24.31-.36.7-.37,1.19l2.64-.58Z"/>
</svg>