<?xml version="1.0" encoding="UTF-8"?>
<svg id="_레이어_1" data-name="레이어 1" xmlns="http://www.w3.org/2000/svg" version="1.1" viewBox="0 0 24 24">
  <defs>
    <style>
      .cls-1 {
        fill: #000;
        stroke-width: 0px;
      }
    </style>
  </defs>
  <path class="cls-1" d="M12,21.6c-1.6,0-3.1-.4-4.5-1.1-1.4-.7-2.5-1.7-3.4-3v2.3h-1.7v-5.2h5.2v1.7h-2.2c.7,1,1.6,1.9,2.8,2.5,1.1.6,2.4,1,3.8,1s2.1-.2,3.1-.6,1.8-1,2.5-1.7c.7-.7,1.3-1.5,1.7-2.5s.6-2,.6-3.1h1.7c0,1.3-.3,2.6-.8,3.7-.5,1.2-1.2,2.2-2.1,3.1s-1.9,1.6-3.1,2.1-2.4.8-3.7.8ZM2.4,12c0-1.3.3-2.6.8-3.7s1.2-2.2,2.1-3.1,1.9-1.6,3.1-2.1c1.2-.5,2.4-.8,3.7-.8s3.1.4,4.5,1.1,2.5,1.7,3.4,3v-2.3h1.7v5.2h-5.2v-1.7h2.2c-.7-1-1.6-1.9-2.8-2.5s-2.4-1-3.8-1-2.1.2-3.1.6-1.8,1-2.5,1.7c-.7.7-1.3,1.5-1.7,2.5s-.6,2-.6,3.1h-1.7ZM12,17.2c.3,0,.6-.1.8-.3.2-.2.3-.5.3-.8s-.1-.6-.3-.8c-.2-.2-.5-.3-.8-.3s-.6.1-.8.3-.3.5-.3.8.1.6.3.8.5.3.8.3ZM11.2,13.9h1.6c0-.5,0-.9.2-1.2s.4-.6.8-1c.5-.5.8-.9,1-1.2s.3-.7.3-1.1c0-.8-.3-1.5-.9-1.9s-1.3-.7-2.1-.7-1.4.2-1.9.6-.9.9-1.1,1.6l1.4.6c.1-.4.3-.7.6-.9s.6-.4,1-.4.7.1,1,.3.4.5.4.9,0,.5-.2.7-.4.5-.7.9c-.5.4-.8.8-1,1.2s-.3.9-.3,1.6Z"/>
</svg>